<?xml version="1.0" standalone="no"?>
<!DOCTYPE svg PUBLIC "-//W3C//DTD SVG 1.1//EN" "http://www.w3.org/Graphics/SVG/1.1/DTD/svg11.dtd" >
<!--
2013-9-30: Created.
-->
<svg>
<metadata>
Created by iconfont
</metadata>
<defs>

<font id="iconfont" horiz-adv-x="1024" >
  <font-face
    font-family="iconfont"
    font-weight="500"
    font-stretch="normal"
    units-per-em="1024"
    ascent="896"
    descent="-128"
  />
    <missing-glyph />
    
    <glyph glyph-name="x" unicode="x" horiz-adv-x="1001"
d="M281 543q-27 -1 -53 -1h-83q-18 0 -36.5 -6t-32.5 -18.5t-23 -32t-9 -45.5v-76h912v41q0 16 -0.5 30t-0.5 18q0 13 -5 29t-17 29.5t-31.5 22.5t-49.5 9h-133v-97h-438v97zM955 310v-52q0 -23 0.5 -52t0.5 -58t-10.5 -47.5t-26 -30t-33 -16t-31.5 -4.5q-14 -1 -29.5 -0.5
t-29.5 0.5h-32l-45 128h-439l-44 -128h-29h-34q-20 0 -45 1q-25 0 -41 9.5t-25.5 23t-13.5 29.5t-4 30v167h911zM163 247q-12 0 -21 -8.5t-9 -21.5t9 -21.5t21 -8.5q13 0 22 8.5t9 21.5t-9 21.5t-22 8.5zM316 123q-8 -26 -14 -48q-5 -19 -10.5 -37t-7.5 -25t-3 -15t1 -14.5
t9.5 -10.5t21.5 -4h37h67h81h80h64h36q23 0 34 12t2 38q-5 13 -9.5 30.5t-9.5 34.5q-5 19 -11 39h-368zM336 498v228q0 11 2.5 23t10 21.5t20.5 15.5t34 6h188q31 0 51.5 -14.5t20.5 -52.5v-227h-327z" />
    

    
    <glyph glyph-name="bianji" unicode="&#58887;" d="M624.816805 69.257651H131.294863c-10.484586 0-18.983858-8.499272-18.983858-18.982834s8.499272-18.982834 18.983858-18.982834h493.521942c10.483562 0 18.982834 8.499272 18.982833 18.982834s-8.499272 18.982834-18.982833 18.982834zM421.414818 223.283792c4.858336 0 9.716672 1.853232 13.423136 5.559698L542.406322 336.411858c7.41293 7.413954 7.41293 19.43232 0 26.847297-7.41293 7.41293-19.433343 7.41293-26.847297 0L407.992705 255.690787c-7.413954-7.413954-7.413954-19.43232 0-26.847297a18.921401 18.921401 0 0 1 13.422113-5.559698zM901.560721 732.957525c-7.41293 7.413954-19.433343 7.413954-26.847297 0L581.404067 439.649191c-7.41293-7.41293-7.41293-19.43232 0-26.846273 3.706465-3.707489 8.564801-5.560721 13.423136-5.560721s9.716672 1.853232 13.423137 5.560721l293.309357 293.309357c7.413954 7.41293 7.413954 19.43232 0.001024 26.84525z"  horiz-adv-x="1024" />

    
    <glyph glyph-name="baocun" unicode="&#58888;" d="M869.691267 624.562881L755.849553 742.943478c-11.029293 11.46854-26.480746 18.045979-42.392948 18.045979H269.2501c-55.013359 0-99.769434-44.757099-99.769434-99.770458v-517.093829c0-55.013359 44.756075-99.769434 99.769434-99.769434h517.094853c55.013359 0 99.769434 44.756075 99.769434 99.769434V583.793815c0 15.279441-5.832051 29.758203-16.42312 40.769066zM375.399363 733.114179h306.059802V496.764586c0-20.820708-16.939159-37.759867-37.760891-37.759867H413.15923c-20.820708 0-37.759867 16.939159-37.759867 37.759867V733.114179z m306.059802-660.883165h-306.059802V267.918025c0 20.820708 16.939159 37.760891 37.759867 37.760891h230.539044c20.821732 0 37.760891-16.940183 37.760891-37.760891V72.231014z m176.780968 71.89518c0-39.642792-32.252388-71.89518-71.89518-71.89518h-77.011534V267.918025c0 36.192298-29.44387 65.635145-65.635145 65.635145H413.15923c-36.192298 0-65.636169-29.44387-65.636169-65.635145V72.231014h-78.272961c-39.642792 0-71.894156 32.252388-71.894156 71.89518V661.220023c0 39.642792 32.251364 71.894156 71.894156 71.894156h78.272961V496.764586c0-36.192298 29.44387-65.636169 65.636169-65.636168h230.539044c36.192298 0 65.635145 29.44387 65.635145 65.636168V733.114179h4.122162c8.371286 0 16.498888-3.459709 22.301246-9.492441l113.843762-118.381621a30.798471 30.798471 0 0 0 8.639544-21.446302v-439.667621zM598.064729 508.948822c7.69757 0 13.937127 6.240581 13.937127 13.938151V665.748668c0 7.69757-6.240581 13.938151-13.937127 13.938151s-13.937127-6.240581-13.937127-13.938151v-142.861695c0-7.69757 6.240581-13.938151 13.937127-13.938151z"  horiz-adv-x="1024" />

    
    <glyph glyph-name="fenxiang" unicode="&#58889;" d="M836.472331 384.163822c0-178.767306-145.437791-324.205097-324.205097-324.205097s-324.203049 145.438815-324.203049 324.205097c0 171.644136 134.093142 313.813685 305.275505 323.661414l-1.600333 27.830227c-185.916073-10.695506-331.55045-165.089222-331.55045-351.491641 0-47.524661 9.311213-93.634313 27.673572-137.050123 17.733694-41.92708 43.117859-79.579439 75.448062-111.908618 32.330203-32.330203 69.981538-57.714368 111.908618-75.448062 43.414786-18.364407 89.525461-27.673573 137.050123-27.673572 47.524661 0 93.634313 9.310189 137.050122 27.673572 41.92708 17.73267 79.579439 43.116835 111.908618 75.448062 32.330203 32.329179 57.714368 69.981538 75.448062 111.908618 18.363383 43.414786 27.673573 89.525461 27.673573 137.050123h-27.877326zM487.267026 400.790695l19.314573-20.098868 318.426288 306.00963v-169.190906h27.875278V733.547283H635.044395v-27.875278h169.473499z"  horiz-adv-x="1024" />

    
    <glyph glyph-name="guanbi" unicode="&#58890;" d="M846.181836 527.920393c-18.637785 44.065977-45.317164 83.638121-79.295823 117.616779-33.979682 33.979682-73.550802 60.659062-117.616779 79.296847-45.628426 19.299214-94.090966 29.08551-144.039164 29.08551-72.441935 0-142.602653-20.933335-202.897211-60.53722-6.434095-4.225575-8.223847-12.867167-3.998272-19.302286s12.869215-8.224871 19.301262-3.997248c55.736222 36.610044 120.6055 55.960452 187.593197 55.960452 188.668277 0 342.161998-153.492697 342.161998-342.161998S693.897323 41.718208 505.23007 41.718208c-188.669301 0-342.161998 153.493721-342.161998 342.163021 0 67.235478 19.48249 132.304414 56.342362 188.173741 4.239909 6.42488 2.467564 15.070568-3.958341 19.309453-6.426928 4.238885-15.070568 2.465516-19.309453-3.95834-39.87419-60.437903-60.95087-130.815685-60.950869-203.524854 0-49.948198 9.786296-98.409714 29.08551-144.040187 18.637785-44.064953 45.317164-83.637097 79.295823-117.615755 33.979682-33.979682 73.550802-60.659062 117.616779-79.296847 45.628426-19.300238 94.090966-29.084487 144.039163-29.084487s98.409714 9.785272 144.039164 29.084487c44.065977 18.637785 83.638121 45.318188 117.616779 79.296847s60.658038 73.550802 79.295823 117.615755c19.300238 45.62945 29.084487 94.090966 29.084486 144.040187s-9.784248 98.410738-29.083462 144.039164zM400.598205 270.878078c2.721487-2.720463 6.288704-4.081207 9.854896-4.081207s7.134433 1.360744 9.854897 4.081207l88.741164 88.741165 88.741165-88.741165c2.721487-2.720463 6.289728-4.081207 9.855921-4.081207s7.134433 1.360744 9.85592 4.081207c5.441951 5.442974 5.441951 14.268866 0 19.71184l-88.741165 88.741165 88.741165 88.741165c5.441951 5.442974 5.441951 14.267842 0 19.710816-5.442974 5.442974-14.268866 5.442974-19.711841 0l-88.741165-88.741165-88.741164 88.741165c-5.441951 5.442974-14.268866 5.442974-19.710817 0-5.442974-5.442974-5.442974-14.267842 0-19.710816l88.741165-88.741165-88.741165-88.741165c-5.441951-5.443998-5.441951-14.268866 0.001024-19.71184z"  horiz-adv-x="1024" />

    
    <glyph glyph-name="qq" unicode="&#58891;" d="M778.005407 390.340922c-17.481818 17.978402-23.722399 35.843154-22.253123 63.743005 3.604076 70.860032-13.014606 134.005087-49.386085 187.674084-22.01763 32.528837-51.335562 59.19593-84.785896 77.118019-29.197114 15.643944-61.747452 24.762667-94.859904 26.657878v0.32662l-13.828595 0.107508c-0.678836 0.005119-1.345385 0.005119-2.019102 0.005119-37.540755 0-74.828611-9.351145-107.831507-27.042859-33.438047-17.924136-62.739597-44.585086-84.733677-77.09447-36.422673-53.750908-53.05057-116.942038-49.41885-187.868622 1.524565-27.833299-4.700658-45.689859-22.221383-63.709217-46.153679-47.65879-67.185307-97.061257-64.291807-151.094757 0.072696-1.245045 0.134129-2.525925 0.19761-3.829331 0.773033-15.850769 2.067224-42.382709 27.571184-49.987106a30.540451 30.540451 0 0 1 8.834082-1.301358c15.461692 0 25.763003 11.291407 34.040092 20.366103 2.093845 2.295551 4.073016 4.463116 6.002016 6.307134 3.33889 3.232406 6.401331 7.314637 9.363431 11.26069 1.096581 1.462108 2.543331 3.390084 3.946054 5.134785 13.01563-15.297871 24.329563-35.315853 33.696066-59.642344 0.200682-0.51911 0.331739-0.936855 0.416721-1.260403-2.463468-1.493849-8.39586-2.932408-11.424512-3.667557-3.32046-0.805798-6.458669-1.566545-9.240565-2.718415-19.544947-7.888013-47.254356-35.5708-44.849249-70.157647 1.155967-16.13848 10.544995-44.767338 60.436879-55.182299 27.239445-5.692802 53.330091-8.578111 77.548051-8.578112 40.650295 0 74.940215 8.194154 101.962596 24.382806 11.808469 7.135457 24.153455 10.328955 31.149663 10.328955 7.134433 0 19.725151-3.208857 31.740445-10.359672 27.039788-16.176364 61.352233-24.37871 101.984098-24.37871 24.190315 0 50.265602 2.895548 77.488665 8.603709 49.919529 10.420081 59.259411 39.062249 60.382613 55.183323 2.488041 34.752716-24.704305 61.949158-44.807269 70.159694l-0.10546 0.043004c-2.672341 1.065865-5.690755 1.78668-8.886301 2.549474-2.881213 0.688051-9.228278 2.202377-11.730654 3.763802 0.079863 0.3215 0.206825 0.742317 0.407506 1.263475 9.51599 24.471883 20.84221 44.489865 33.726783 59.631081 1.413986-1.758011 2.871998-3.702369 3.97677-5.17574 2.949814-3.933767 5.999968-7.999616 9.356264-11.261715 1.816373-1.750844 3.75254-3.877454 5.801335-6.127953 8.331355-9.151487 18.699218-20.53914 34.213128-20.53914 2.923193 0 5.871982 0.435151 8.824867 1.310573 25.64116 7.735454 26.844225 34.352377 27.561969 50.25434 0.059385 1.303406 0.116723 2.58531 0.1843 3.814996 3.010223 54.021214-17.966116 103.406274-64.139249 150.98725z m36.30595-149.452446c-0.071672-1.331051-0.134129-2.696914-0.196586-4.08735-0.7116-15.761691-2.00272-23.086566-7.703713-24.806693-0.320476-0.095221-0.593853-0.14232-0.83549-0.14232-3.194522 0-9.455581 6.878462-13.599245 11.429631-2.260739 2.482922-4.597245 5.049802-7.026925 7.392452-1.750844 1.701697-4.136497 4.881885-6.443311 7.956613-6.955253 9.274353-14.837122 19.783512-26.870846 19.797847-5.412258 0-10.575712-2.318076-14.548387-6.528293-17.509463-18.317308-32.504264-43.330827-44.588158-74.405746-4.261411-11.104036-2.080535-19.268498 0.498632-24.163694 6.496552-12.327579 20.853472-15.755547 30.354105-18.023453 1.760059-0.419793 4.160046-0.993169 4.987345-1.310574 10.051482-4.145712 28.986194-21.280433 27.475963-42.364279-1.024909-14.726543-13.901291-24.771882-38.284096-29.861615-25.357544-5.317036-49.507927-8.01395-71.779481-8.013951-35.521654 0-65.01979 6.872318-87.700898 20.440847-14.817668 8.818724-32.453069 14.297535-46.023645 14.297535-13.46102 0-30.921337-5.496216-45.519894-14.316989-22.588958-13.532692-52.059449-20.394772-87.592365-20.394772-22.305342 0-46.477227 2.688723-71.849105 7.990401-24.379733 5.089734-37.275569 15.144288-38.330171 29.85752-1.411938 20.298527 16.874654 38.096725 27.508727 42.358136l0.200681 0.081911c0.791463 0.326619 3.30715 0.936855 5.145024 1.383269 9.404387 2.28224 23.616939 5.729662 30.019294 17.971235 2.55357 4.883933 4.699634 13.029965 0.423888 24.083831-11.869903 30.828163-26.85856 55.867279-44.534916 74.407794-5.129665 5.395876-10.761035 6.527269-14.582175 6.527269-12.01939 0-19.886925-10.483562-26.827843-19.732318-2.310909-3.080871-4.701681-6.265154-6.386996-7.898251-2.554594-2.439919-4.954581-5.07028-7.27573-7.614635-4.096565-4.490761-10.288-11.278097-13.446686-11.278097-0.281568 0-0.51911 0.033788-0.820132 0.124914-5.678468 1.693506-6.977778 8.972307-7.742621 24.645943a429.19225 429.19225 0 0 1-0.208872 4.024894c-2.452205 45.798391 16.023805 88.371542 56.465228 130.129681 23.015918 23.671205 32.00256 48.986769 30.052058 84.597501-3.312269 64.686003 11.713248 122.137233 44.664949 170.764619 38.471467 56.864543 98.056474 90.115219 164.128818 91.821012h8.233062c68.209193 0 130.000672-33.494361 169.533908-91.902923 32.901531-48.548547 47.915785-105.954725 44.629114-170.601821-1.87883-35.679332 7.125218-60.985682 30.097109-84.60774 40.437327-41.671109 58.853952-84.19921 56.300382-130.029341z"  horiz-adv-x="1024" />

    
    <glyph glyph-name="pengyouquan" unicode="&#58892;" d="M856.896796 539.636713c-17.989665 42.534244-43.742429 80.730286-76.539524 113.527381-32.797095 32.797095-70.994161 58.548835-113.527381 76.539523-44.042427 18.629593-90.820676 28.074936-139.032364 28.074936-48.211688 0-94.988913-9.445342-139.032365-28.073912-42.534244-17.990689-80.730286-43.742429-113.527381-76.539523-32.798119-32.798119-58.549858-70.994161-76.539523-113.527381-18.62857-44.043451-28.073912-90.820676-28.073912-139.032365s9.445342-94.988913 28.073912-139.033388c17.990689-42.53322 43.742429-80.730286 76.539523-113.527381s70.994161-58.549858 113.527381-76.539524c44.043451-18.62857 90.820676-28.073912 139.032365-28.073911 48.211688 0 94.988913 9.445342 139.032364 28.073911 42.53322 17.989665 80.730286 43.742429 113.527381 76.539524s58.549858 70.994161 76.539524 113.527381c18.62857 44.044475 28.073912 90.820676 28.073911 139.033388s-9.444318 94.988913-28.073911 139.031341z m-34.365687 7.709856L670.946934 385.598285l-10.259331 316.267938c70.225223-31.099493 127.613995-86.047323 161.843506-154.519654zM484.026429 284.41077l-69.34161 64.983954-3.080871 94.980722 64.981906 69.339562 94.981746 3.080871 69.340586-64.98293 3.080871-94.980722-64.98293-69.340586-94.979698-3.080871zM632.440655 712.851489l7.189722-221.636361-230.90969 216.399187c36.947926 14.380469 77.104708 22.287936 119.07684 22.287936 36.564993 0 71.753884-5.998944 104.643128-17.050762z m-251.385349-17.513559l161.748284-151.584174-316.267938-10.259331c31.099493 70.225223 86.047323 127.613995 154.519654 161.843505zM198.499624 400.604348c0 36.564993 5.999968 71.75286 17.050762 104.643128l221.635337 7.189723-216.398163-230.90969c-14.380469 36.94895-22.287936 77.104708-22.287936 119.076839z m34.564321-146.742221l151.583151 161.748285 10.25933-316.266914c-70.225223 31.099493-127.612971 86.047323-161.842481 154.518629zM423.153375 88.357208l-7.189723 221.636361 230.910714-216.400211c-36.947926-14.380469-77.103684-22.287936-119.076839-22.287936-36.564993 0.001024-71.753884 5.999968-104.644152 17.051786z m251.386373 17.513558L512.791463 257.453917l316.266914 10.259331c-31.098469-70.225223-86.046299-127.612971-154.518629-161.842482z m165.504919 190.08943l-221.636361-7.189722 216.400211 230.910714c14.380469-36.947926 22.287936-77.104708 22.287936-119.07684 0-36.564993-5.999968-71.753884-17.051786-104.644152z"  horiz-adv-x="1024" />

    
    <glyph glyph-name="qqkongjian" unicode="&#58893;" d="M904.41429 541.287216l-0.010239 0.030716c-3.167901 9.680836-11.759323 16.484554-21.858928 17.328236l-238.360504 20.466443-93.125442 220.372887a25.197818 25.197818 0 0 1-23.26165 15.438143 25.183483 25.183483 0 0 1-23.258579-15.428928l-93.129538-220.381078-238.330811-20.463372c-10.14056-0.847777-18.73403-7.656614-21.897835-17.358952a25.236725 25.236725 0 0 1 7.48153-26.905658l180.810981-156.652407-54.195274-233.033228a25.240821 25.240821 0 0 1 9.705409-26.142864l0.129009-0.094198c8.212584-5.865839 19.112867-6.309181 27.814869-1.103748l204.866143 123.548146 204.818021-123.519477c3.91329-2.390772 8.441935-3.654247 13.097541-3.654247 5.353896 0 10.468204 1.640264 14.791047 4.743661 0.033788 0.024573 0.066553 0.049146 0.101365 0.072695a25.273585 25.273585 0 0 1 9.717695 26.136721l-54.198346 233.045515 180.809958 156.655479a25.224439 25.224439 0 0 1 7.483578 26.899515z m-212.898524-167.988865a13.940199 13.940199 0 0 1-4.448782-13.691395l54.694931-235.183387-206.769546 124.696946c-2.21364 1.335146-4.706801 2.001696-7.197914 2.001695s-4.984274-0.666549-7.197914-2.001695L313.834163 124.428688l54.693906 235.177244a13.937127 13.937127 0 0 1-4.448782 13.691395L181.592206 531.402627l240.577215 20.656886a13.939175 13.939175 0 0 1 11.646696 8.461389l93.98141 222.398131 93.983458-222.399155a13.939175 13.939175 0 0 1 11.646695-8.461389l240.571072-20.655862-182.482986-158.104276zM574.322876 478.414514c23.947654-2.032412 8.48289-12.017342 8.48289-12.017342s-182.37343-101.083079-200.045691-116.634873c-17.672261-15.55077-2.120467-24.03366-2.120467-24.033661L684.596349 337.038476s-160.460236 13.430304-181.666949 12.723823c-21.205689-0.706481-11.309837 9.189371-11.309837 9.18937s159.047275 112.392916 178.132497 128.651191c19.085222 16.258275 0 19.617643 0 19.617643h-311.732126s194.285312-26.937399 216.302942-28.805989z"  horiz-adv-x="1024" />

    
    <glyph glyph-name="weixin" unicode="&#58894;" d="M302.848897 587.813589c-18.67874 0-38.84109-12.091062-38.84109-31.622698 0-19.609452 20.16235-31.745564 38.84109-31.745565 18.946998 0 31.672869 12.758635 31.672869 31.741469-0.01843 19.213208-12.454541 31.626794-31.672869 31.626794zM495.296335 524.444302c19.005359 0 31.777305 12.758635 31.777305 31.745565 0 19.210136-12.471947 31.622698-31.777305 31.622698-18.62857 0-38.741773-12.091062-38.741773-31.618603 0.022525-19.612523 20.126514-31.74966 38.741773-31.74966zM903.969923 301.689859c0 107.183387-97.655111 198.754571-222.319292 208.468171l-0.690099 0.054266-2.091797 7.80303-0.031741-0.01843c-25.385189 113.782328-148.247332 199.386309-286.672532 199.386309-157.09063 0-284.894044-109.365287-284.894044-243.793239 0-71.907466 36.881373-137.009167 106.666325-188.268962l1.542995-1.134465-25.185531-75.718367c-1.256307-3.825236-0.113651-7.994497 2.894524-10.612572a10.001312 10.001312 0 0 1 6.505767-2.418417 10.14056 10.14056 0 0 1 4.437519 1.043339l93.113156 46.600093 12.572287-2.549474c28.175276-5.789048 52.502792-10.784584 82.347002-10.784585 8.706097 0 17.635401 0.380885 26.55037 1.14368l11.969219 1.650503c34.350329-83.986242 126.465196-140.329627 229.869423-140.329627 26.496104 0 53.015758 6.089046 80.110836 12.871263l0.998288 0.249828 72.052858-39.385797a9.917353 9.917353 0 0 1 4.749804-1.229686 9.870255 9.870255 0 0 1 6.210888 2.191114c3.144352 2.549474 4.419089 6.678804 3.243669 10.525541l-18.683859 62.139601 1.401699 1.111939c60.189099 47.555378 93.332267 104.736302 93.332266 161.004944z m-590.440878-41.700802l-15.765786 3.185307a9.499608 9.499608 0 0 1-1.964836 0.208873 9.514966 9.514966 0 0 1-4.351513-1.061769l-74.833731-37.461916 19.977027 60.020157c1.392484 4.187691-0.104436 8.706097-3.71568 11.243285-70.210888 48.936599-105.808309 108.643448-105.808309 177.465948 0 123.516406 118.925304 224.00256 265.099268 224.00256 128.697266 0 243.552626-78.858624 267.172637-183.423937l0.712624-3.170973-3.248788-0.040955c-132.39042-1.733438-240.095989-95.609388-240.095989-209.266802 0-15.566129 2.277121-31.782424 6.774025-48.20145l0.576448-1.390436-6.792456-1.472347h-0.235493a290.576607 290.576607 0 0 0-24.835363-1.065865c-28.167085 0-51.574128 4.836834-78.664085 10.43032z m474.805318-119.514038l13.701633-45.570064-54.294591 29.703937a9.814965 9.814965 0 0 1-4.736494 1.220471c-0.834467 0-1.623882-0.099317-2.413297-0.317404-26.19713-6.619419-53.292207-13.46614-80.010495-13.46614-123.548147 0-224.056826 85.087942-224.056826 189.670661 0 104.569408 100.508679 189.648135 224.056826 189.648135 121.202425 0 223.599149-86.848001 223.599149-189.648135 0-52.284704-32.788904-105.735614-92.32374-150.489641a9.94807 9.94807 0 0 1-3.522165-10.75182zM735.886861 388.45083c-12.227239 0-24.68178-12.594813-24.68178-24.958229 0-12.313245 12.454541-24.858912 24.68178-24.858912 19.686243 0 31.872526 12.903003 31.872526 24.858912 0 12.005055-12.186283 24.958229-31.872526 24.958229zM584.716336 388.45083c-12.327579 0-24.885533-12.594813-24.885533-24.958229 0-12.313245 12.558977-24.858912 24.885533-24.858912 19.581807 0 31.700514 12.903003 31.700513 24.858912 0 12.005055-12.118707 24.958229-31.700513 24.958229z"  horiz-adv-x="1024" />

    
    <glyph glyph-name="weibo" unicode="&#58895;" d="M472.724783 100.767722c-76.949078 0-153.935015 19.612523-211.217304 53.811317-30.951029 18.478058-55.341002 40.523333-72.493129 65.525589-18.858944 27.489273-28.422033 57.777849-28.422032 90.02307 0 65.296239 38.734606 140.192426 109.066312 210.890684 32.710064 32.853408 68.461068 60.35292 103.390916 79.530293 35.821652 19.666789 69.917033 30.062297 98.598109 30.062297 24.743213 0 45.685763-7.889036 60.563841-22.814213 11.67434-11.7112 23.766426-32.617915 21.93572-68.423185 77.665797 29.021006 126.117075 21.432992 155.571184-23.590318 14.099925-21.515926 16.926872-47.656742 8.453197-77.85112 25.823412-9.851825 47.965956-23.912842 64.592829-41.11002 21.127874-21.849713 32.32406-47.755035 32.37935-74.914618 0.076791-38.853376-19.615595-80.024829-55.450558-115.931463-65.747772-65.877806-173.026381-105.208313-286.968435-105.208313z m-1.076104 501.966948c-24.004991 0-53.460124-9.205753-85.183163-26.621019-32.633273-17.915945-66.191115-43.767002-97.048971-74.758987-65.096581-65.435487-100.94895-133.349801-100.948949-191.226966 0-65.689411 47.488825-107.829459 87.328203-131.614315 53.08743-31.693346 124.864863-49.870383 196.92796-49.870383 106.702161 0 206.6047 36.272162 267.239189 97.026445 30.567072 30.628506 47.368007 64.786344 47.30555 96.182764-0.081911 39.919241-35.516534 76.769898-90.305662 93.94455a13.942246 13.942246 0 0 0-8.761387 7.167197 13.939175 13.939175 0 0 0-0.599996 11.181852c10.378102 27.585518 9.983906 49.294959-1.205113 66.367223-11.491065 17.564753-25.685187 26.168461-46.029789 27.90497-23.884173 2.040603-55.78844-5.689731-97.495385-23.634345a13.939175 13.939175 0 0 0-19.187611 15.481146c6.060377 30.950006 2.182924 54.412338-11.215639 67.851857-9.530325 9.563089-23.646632 14.618011-40.819237 14.618011zM855.714208 432.48097a11.638504 11.638504 0 0 0-11.647719 11.658982v0.106484c0 1.211256 0.195562 2.437871 0.563136 3.597933 18.275329 56.883997 4.919769 119.737245-34.887868 164.031549-39.853712 44.321948-100.775913 64.198634-159.004272 51.69597-6.310205-1.210232-12.475019 2.694866-13.80095 9.030669-1.31774 6.298943 2.692818 12.512903 8.957973 13.858287 66.32422 14.107092 135.737501-8.428624 181.146815-58.914361 45.258803-50.397683 60.528005-121.863855 39.852689-186.564193-1.417057-4.880861-5.895532-8.50132-11.179804-8.50132zM768.420817 460.864095c-1.176444 0-2.397939 0.17918-3.575408 0.571328-6.114643 1.98429-9.493465 8.589374-7.485625 14.730638 8.270946 25.700546 2.252548 54.079575-15.709473 74.044315-17.907754 19.988289-45.43184 28.908378-71.756955 23.256532-6.286656-1.164158-12.475019 2.701009-13.823476 9.004047-1.321836 6.325564 2.693842 12.55181 8.980498 13.896172 34.447598 7.398595 70.436143-4.333083 93.926121-30.486186 23.485882-26.130577 31.363655-63.28328 20.524805-96.933271a11.663078 11.663078 0 0 0-11.080487-8.083575z"  horiz-adv-x="1024" />

    
    <glyph glyph-name="youtube" unicode="&#58896;" d="M836.878814 168.495688H182.553634c-61.584655 0-111.688483 50.102804-111.688483 111.687459V531.538804c0 61.584655 50.103828 111.688483 111.688483 111.688483h654.32518c61.584655 0 111.687459-50.102804 111.687459-111.688483v-251.35668c0-61.584655-50.102804-111.686435-111.687459-111.686436zM182.553634 615.350985c-46.214088 0-83.812181-37.598093-83.812181-83.812181v-251.35668c0-46.214088 37.598093-83.812181 83.812181-83.812181h654.32518c46.214088 0 83.812181 37.599117 83.812181 83.812181V531.538804c0 46.214088-37.599117 83.812181-83.812181 83.812181H182.553634zM386.012959 218.611803a13.939175 13.939175 0 0 0-13.938151 13.937128V579.176092a13.939175 13.939175 0 0 0 20.906714 12.070584l300.187819-173.314092a13.938151 13.938151 0 0 0 0-24.141169L392.981522 220.478346a13.922793 13.922793 0 0 0-6.968563-1.866543z m13.93815 336.423121v-298.344825l258.373367 149.170877-258.373367 149.173948z"  horiz-adv-x="1024" />

    
    <glyph glyph-name="xuanze" unicode="&#58897;" d="M850.668501 529.968164c-18.637785 44.065977-45.317164 83.638121-79.295823 117.616778-33.979682 33.979682-73.550802 60.658038-117.616779 79.296847-45.628426 19.299214-94.090966 29.084487-144.039163 29.084487-72.441935 0-142.602653-20.933335-202.897212-60.53722-6.434095-4.225575-8.223847-12.867167-3.997248-19.301262 4.225575-6.435119 12.869215-8.224871 19.301262-3.997249 55.736222 36.60902 120.6055 55.960452 187.593198 55.960453 188.669301 0 342.161998-153.493721 342.161998-342.161998S698.385013 43.765978 509.716736 43.765978 167.553714 197.259699 167.553714 385.929c0 67.234454 19.483514 132.304414 56.343386 188.17374 4.238885 6.42488 2.46654 15.070568-3.958341 19.309454-6.426928 4.239909-15.070568 2.467564-19.309453-3.958341-39.87419-60.437903-60.95087-130.815685-60.95087-203.523829 0-49.948198 9.785272-98.409714 29.084487-144.039164 18.638808-44.065977 45.317164-83.638121 79.296846-117.616779s73.550802-60.659062 117.616779-79.296846c45.62945-19.299214 94.090966-29.084487 144.040188-29.084487s98.409714 9.786296 144.039163 29.084487c44.065977 18.638808 83.638121 45.318188 117.616779 79.296846s60.658038 73.550802 79.295823 117.616779c19.299214 45.628426 29.084487 94.090966 29.084487 144.039164s-9.786296 98.409714-29.084487 144.03814zM478.296767 241.032844c3.567216 0 7.133409 1.360744 9.854896 4.081207l197.193146 197.193147c5.441951 5.442974 5.441951 14.267842 0 19.710816-5.442974 5.442974-14.26989 5.442974-19.710816 0L478.297791 274.681812l-90.485866 90.485865c-5.442974 5.441951-14.267842 5.441951-19.710816 0-5.442974-5.442974-5.442974-14.268866 0-19.71184l100.340762-100.340762a13.892076 13.892076 0 0 1 9.854896-4.082231z"  horiz-adv-x="1024" />

    
    <glyph glyph-name="Twitter" unicode="&#58898;" d="M347.947974 6.662422c-9.186299 0-18.364407 0.254947-27.549683 0.764842-83.104676 4.614651-166.825732 30.170829-248.838946 75.960005-0.215016 0.118771-0.488393 0.250852-0.763818 0.388052-3.732062 1.862447-13.64532 6.809861-14.079447 21.53538a13.937127 13.937127 0 0 0 14.911866 14.315965c67.134113-4.73547 125.912298 4.935127 179.688803 29.562641 15.149407 6.926584 30.094037 14.088662 45.026381 23.735709-63.414338 14.637465-110.177228 52.180268-138.950454 111.586095-2.969267 6.125906-9.151487 18.881469-1.78156 29.594381 6.156622 8.948758 17.245301 9.599949 23.957892 9.288688-60.815717 38.386485-92.212136 94.580383-95.616555 170.49636a13.938151 13.938151 0 0 0 17.877038 13.989345c7.326923-2.167565 14.263746-4.602365 20.972243-6.956276 3.668581-1.287024 7.292111-2.559713 10.909498-3.759707-23.66199 27.558897-37.997408 56.811301-44.331163 89.854128-9.707457 50.605532-2.148111 96.217576 23.11114 139.438847a13.938151 13.938151 0 0 0 22.413874 2.26893c39.468732-44.044475 72.603708-74.281856 107.437311-98.044187 70.756619-48.268002 151.710112-77.840882 240.611003-87.897484 2.483946-0.280545 4.273697-0.418769 5.564817-0.473035a43.377926 43.377926 0 0 1-0.27133 4.007487c-8.998928 82.936759 23.457213 149.373606 93.860592 192.127986 73.014286 44.328091 149.724799 41.722303 216.002944-7.341258 24.421713-18.087958 42.62537-20.195114 69.56584-8.056953 13.450782 6.055258 26.794055 11.777753 42.243461 18.404338 6.941943 2.977459 14.261699 6.116691 22.12309 9.514967a13.937127 13.937127 0 1 0 18.608092-17.6139c-10.16411-27.579375-23.374278-50.218504-40.998416-69.678468 2.809541 0.846753 5.630345 1.721151 8.474699 2.602717 10.516326 3.260051 21.391012 6.630681 32.620986 8.777769a13.932008 13.932008 0 0 0 12.613244-3.976771l1.608523-1.655622a13.935079 13.935079 0 0 0 2.589406-15.701282c-15.430976-32.431568-40.833571-54.741005-67.709536-76.603004-10.540899-8.562753-14.030301-16.504008-14.940535-33.991969-5.901675-111.939335-34.061593-209.162366-83.696482-288.976275-52.102453-83.780441-128.608188-149.584527-227.393668-195.583599-74.074008-34.487529-149.9306-51.904843-225.87115-51.904842z m-230.439727 84.118323c148.733678-72.7491 298.114451-75.121442 444.545411-6.940919 184.163182 85.754491 283.422721 240.771754 295.02027 460.746348 1.098629 21.115587 5.803382 38.413106 25.193722 54.164558 15.740189 12.803686 30.888572 25.704641 43.124002 40.596029-19.236757-5.96106-39.195354-12.027581-63.078503-11.863759a13.937127 13.937127 0 0 0-7.728287 25.478362c24.263011 16.432336 41.824692 34.710736 55.225303 58.108564-10.822468-4.655607-20.759275-8.970259-30.685843-13.438495-14.779785-6.65935-28.414866-10.028957-41.588174-10.02998-18.929592-0.001024-36.913114 6.954229-56.013695 21.100228-57.388772 42.48305-121.344745 44.529797-184.947477 5.917034-61.350185-37.257139-88.472907-92.869471-80.614588-165.292975 0.891804-8.210536 1.15699-20.044603-6.804741-27.972548-8.642616-8.604732-21.094085-7.197914-29.331243-6.269249-93.460252 10.57264-178.64444 41.717184-253.189435 92.569472-32.65887 22.278721-63.679524 49.701441-98.962612 87.644584-14.680468-32.216552-18.129937-65.413986-10.913594-103.030509 7.583919-39.567024 29.073224-73.238517 67.626602-105.970083a13.938151 13.938151 0 0 0-8.73579-24.559938c-23.966084-0.490441-43.344137 6.309181-62.077143 12.883549l-0.032764 0.011263c9.1392-71.76617 49.449566-119.742365 125.491481-150.031964a13.939175 13.939175 0 0 0-3.102373-26.73467c-19.934023-2.972339-36.770794-3.83957-52.722927-2.690771 25.384165-51.46662 64.680884-82.629593 120.085366-95.245908 5.747068-1.333099 11.72963-2.481898 18.656215-3.811925 3.181212-0.61126 6.588702-1.265522 10.314621-2.001696a13.938151 13.938151 0 0 0 6.422832-24.209768c-25.792695-22.334011-51.573104-35.004591-75.768538-46.065625-44.879965-20.55245-92.796775-31.481402-145.408098-33.059209z"  horiz-adv-x="1024" />

    
    <glyph glyph-name="lanya" unicode="&#58899;" d="M506.242693-9.715648a13.937127 13.937127 0 0 0-13.938151 13.937127V344.370519l-18.478059 13.517334-207.982849-137.304046c-6.425904-4.240933-15.069544-2.470635-19.310478 3.952197-4.240933 6.423857-2.471659 15.070568 3.952198 19.310477l199.340234 131.597933-199.890061 146.224135c-6.212936 4.545027-7.565489 13.265458-3.020461 19.478395 4.545027 6.211912 13.265458 7.564465 19.478394 3.020461l208.24906-152.338778 17.662022 11.660006v366.397364a13.938151 13.938151 0 0 0 21.993057 11.374342l273.255539-193.50204a13.936103 13.936103 0 0 0 5.880173-11.602668 13.935079 13.935079 0 0 0-6.255939-11.404035L520.17982 388.488713v-29.972195l258.752204-189.281584a13.936103 13.936103 0 0 0-1.223543-23.298511L513.24914-7.827603a13.937127 13.937127 0 0 0-7.006447-1.888045z m13.937127 333.69549v-295.532212l225.09095 130.873022-225.09095 164.65919z m0 418.957493v-321.046411L754.811333 576.787368 520.17982 742.937335z"  horiz-adv-x="1024" />

    
    <glyph glyph-name="yunduan" unicode="&#58900;" d="M745.386469 162.645208h-471.355848c-105.126402 0-190.652567 85.552786-190.652567 190.710928 0 105.126402 85.526165 190.652567 190.652567 190.652567 2.067224 0 4.116019-0.032764 6.157646-0.099317 7.175388 120.417105 107.37895 216.182124 229.520278 216.182124 122.188427 0 222.429872-95.763994 229.608332-216.182124 2.024221 0.066553 4.048443 0.099317 6.070616 0.099317 105.134593 0 190.666901-85.526165 190.666901-190.652567 0-32.430544-8.332379-64.497608-24.096117-92.733294-3.751516-6.720783-12.241573-9.128962-18.96338-5.375398-6.720783 3.75254-9.127938 12.242597-5.375398 18.96338 13.450782 24.092022 20.560641 51.460476 20.560641 79.145312 0 89.755835-73.027597 162.777289-162.791624 162.777289-6.024541 0-12.077751-0.347097-17.99376-1.032076a13.936103 13.936103 0 0 0-15.540532 13.844977v1.12525c0 111.463228-90.681428 202.144656-202.144655 202.144656-111.414082 0-202.056602-90.681428-202.056602-202.144656v-1.12525a13.935079 13.935079 0 0 0-15.522102-13.847025c-6.081879 0.696242-12.001984 1.034124-18.099221 1.034124-89.755835 0-162.777289-73.021454-162.777288-162.777289 0-89.787576 73.021454-162.83565 162.777288-162.83565h471.355849c7.69757 0 13.937127-6.240581 13.937127-13.937127s-6.240581-13.938151-13.938151-13.938151z"  horiz-adv-x="1024" />

    
    <glyph glyph-name="shoucang" unicode="&#58901;" d="M728.472907 62.635161c-4.658678 0-9.187323 1.263474-13.099589 3.65527L510.557346 189.807862 305.691203 66.259715c-8.700977-5.205433-19.602285-4.761067-27.813845 1.103748l-0.130034 0.094198a25.240821 25.240821 0 0 0-9.705409 26.144912l54.195274 233.03118-180.810981 156.652407a25.236725 25.236725 0 0 0-7.48153 26.904635c3.165853 9.703361 11.759323 16.511175 21.899883 17.358951l238.329787 20.463373 93.130562 220.381077a25.181436 25.181436 0 0 0 23.257555 15.428928 25.197818 25.197818 0 0 0 23.261651-15.439167l93.126466-220.371862 238.360503-20.466444c10.101653-0.844705 18.694098-7.648423 21.859952-17.332331l0.008191-0.024573a25.228534 25.228534 0 0 0-7.478458-26.898492L698.885693 326.634777l54.198346-233.046539a25.266418 25.266418 0 0 0-9.722815-26.137744l-0.098293-0.070649c-4.322844-3.105444-9.438175-4.744685-14.790024-4.744684zM510.557346 222.360248l213.969507-129.037196-56.598333 243.370374 188.83517 163.608684-248.947477 21.375654-97.253748 230.139728-97.253748-230.139728-248.951573-21.375654 188.839266-163.60766-56.598333-243.365255 213.959269 129.031053z"  horiz-adv-x="1024" />

    
    <glyph glyph-name="facebook" unicode="&#58902;" d="M509.716736-9.778105c-219.502584 0-398.081495 178.567648-398.081495 398.056922S290.213128 786.336762 509.716736 786.336762c219.502584 0 398.080471-178.567648 398.080471-398.056921S729.218296-9.778105 509.716736-9.778105z m0 768.239589c-204.132017 0-370.206217-166.062937-370.206217-370.181643s166.0742-370.182668 370.206217-370.182668 370.205193 166.062937 370.205193 370.182668c0 204.118707-166.073176 370.181644-370.205193 370.181643zM524.435087 158.654103c-0.662454 0-1.330027 0.025597-1.999648 0.078839h-71.89006c-7.243989-0.570304-14.262723 1.972003-19.385221 7.043307-5.156286 5.104068-7.772314 12.155567-7.251156 19.463036V350.385845h-21.348009c-7.310541-0.576447-14.364087 2.004767-19.491705 7.147743-5.108164 5.12557-7.656614 12.160686-7.073 19.43232V447.50444c-0.583615 7.271634 1.964836 14.30675 7.073 19.431295 5.12557 5.144 12.182188 7.719071 19.490681 7.149791h21.350057v25.709761c0 32.270818 3.277457 68.503048 27.580399 92.565377 17.649735 17.473627 43.248916 25.787576 78.232006 25.464028h63.195226c7.317708 0.567232 14.384565-2.012959 19.512183-7.173341 5.095877-5.130689 7.626922-12.16171 7.027949-19.426176v-69.932392c1.077127-7.37607-1.579855-14.903675-7.318733-20.476682-5.142976-4.995536-11.240213-5.741949-14.514598-6.143312-0.553922-0.067576-1.242997-0.151535-1.525589-0.215016-0.997264-0.222183-2.015006-0.334811-3.03582-0.334811h-42.857792c-0.274401 0-0.547779 0.008191-0.821156 0.024573-0.617403 0.035836-1.209209 0.075768-1.774393 0.1157l-0.040956-20.177709h45.350953c7.301326 0.565185 14.363063-2.005791 19.489657-7.148767 5.108164-5.12557 7.657638-12.159662 7.073-19.432319v-70.54058c0.583615-7.271634-1.964836-14.30675-7.074024-19.43232-5.126594-5.144-12.190379-7.730334-19.490681-7.147743h-45.307949l-0.044027-164.030525c1.393508-6.833411-0.265186-13.833715-4.635129-19.144607-4.506119-5.469595-11.264786-8.553538-18.495465-8.554562z m-72.650807 27.954117h67.903051l0.048123 177.718847c0.002048 7.696546 6.241605 13.934055 13.937127 13.934056h57.932455v67.950149H533.600909a13.939175 13.939175 0 0 0-13.938151 13.965796l0.071672 35.935303c0.001024 0.691123 0.054266 1.381221 0.156654 2.064153 1.244021 8.19313 2.142992 14.114259 6.686995 18.917305 6.086998 6.433071 13.641224 5.775737 19.707745 5.246389 1.284976-0.112627 2.728654-0.237541 4.339226-0.338906h40.954389v67.950149h-61.932775l-0.139249 0.001024c-27.233302 0.267234-46.308285-5.418401-58.407538-17.398883-17.022094-16.852129-19.316621-46.23559-19.316621-72.755243v-39.647912c0-7.69757-6.240581-13.938151-13.938151-13.938151h-33.975586v-67.950149h33.975586c7.69757 0 13.938151-6.240581 13.938151-13.938151v-177.715776z"  horiz-adv-x="1024" />

    
    <glyph glyph-name="douban" unicode="&#58903;" d="M392.709169 26.069144a13.927912 13.927912 0 0 0-11.830995 6.549795l-106.077592 169.647559c-4.081207 6.526245-2.097941 15.125858 4.428304 19.207065 6.526245 4.082231 15.124834 2.098965 19.207065-4.428304l106.077591-169.64756c4.081207-6.526245 2.097941-15.125858-4.428304-19.207064a13.875694 13.875694 0 0 0-7.376069-2.121491zM122.851905 25.231606c-5.424544 0-10.581855 3.185307-12.835427 8.494153-3.008175 7.085286 0.296927 15.268178 7.381189 18.277377a34.885821 34.885821 0 0 0 13.703682 2.780872h763.416065c7.69757 0 13.937127-6.239557 13.937127-13.937127s-6.240581-13.937127-13.937127-13.937127H131.101349a7.14672 7.14672 0 0 1-2.809542-0.565185 13.871598 13.871598 0 0 0-5.439902-1.112963zM628.553986 26.070168c-2.523877 0-5.077447 0.684979-7.375046 2.120467-6.527269 4.080183-8.511559 12.679796-4.430352 19.207064L722.794439 217.046283c4.079159 6.527269 12.679796 8.510535 19.207065 4.430352 6.527269-4.080183 8.511559-12.679796 4.430352-19.207065l-106.045851-169.64756a13.928936 13.928936 0 0 0-11.832019-6.551842zM746.091926 248.119155H279.560625c-54.474795 0-98.793671 44.304542-98.793671 98.76193v169.64756c0 54.457389 44.318876 98.761931 98.793671 98.76193h466.531301c54.458413 0 98.761931-44.304542 98.76193-98.76193v-169.64756c0-54.457389-44.304542-98.761931-98.76193-98.76193zM279.560625 587.415297c-39.104228 0-70.917369-31.79983-70.917369-70.885628v-169.64756c0-39.086822 31.813141-70.886653 70.917369-70.886652h466.531301c39.086822 0 70.886653 31.800854 70.886652 70.886652v169.64756c0 39.086822-31.800854 70.885629-70.886652 70.885628H279.560625zM852.106036 714.651479H173.51375c-7.69757 0-13.938151 6.240581-13.93815 13.938151s6.240581 13.938151 13.93815 13.938151h678.592286c7.698594 0 13.937127-6.240581 13.937127-13.938151s-6.238533-13.938151-13.937127-13.938151z"  horiz-adv-x="1024" />

    
    <glyph glyph-name="diannao" unicode="&#58904;" d="M905.042955 107.18134H127.632425c-17.242229 0-31.270482 14.027229-31.270482 31.269458V738.230534c0 17.242229 14.028253 31.270482 31.270482 31.270482h777.41053c17.242229 0 31.269458-14.027229 31.269458-31.270482v-599.779736c0-17.242229-14.027229-31.269458-31.269458-31.269458z m-770.71432 37.965668h764.01811V731.5333H134.328635v-586.386292zM900.659702 304.754348H118.866943c-10.484586 0-18.983858 8.499272-18.983858 18.982833s8.499272 18.982834 18.983858 18.982834h781.792759c10.483562 0 18.982834-8.499272 18.982834-18.982834s-8.499272-18.982834-18.982834-18.982833zM518.831363 233.180668m-24.025469 0a24.025469 24.025469 0 1 1 48.050938 0 24.025469 24.025469 0 1 1-48.050938 0ZM518.828291 8.50132c-10.483562 0-18.982834 8.499272-18.982834 18.982834v93.038411c0 10.483562 8.499272 18.982834 18.982834 18.982834s18.982834-8.499272 18.982834-18.982834v-93.038411c0-10.483562-8.499272-18.982834-18.982834-18.982834zM732.229542-1.737533H305.428064c-10.484586 0-18.983858 8.499272-18.983858 18.982834s8.499272 18.982834 18.983858 18.982833h426.801478c10.483562 0 18.982834-8.499272 18.982834-18.982833s-8.499272-18.982834-18.982834-18.982834z"  horiz-adv-x="1024" />

    
    <glyph glyph-name="gengduo" unicode="&#58905;" d="M512.268258 30.602908c-49.948198 0-98.410738 9.786296-144.039164 29.084487-44.065977 18.637785-83.638121 45.317164-117.616779 79.295823-33.979682 33.979682-60.658038 73.550802-79.296846 117.616779-19.299214 45.628426-29.084487 94.090966-29.084487 144.039163 0 72.709169 21.075656 143.08695 60.95087 203.524854 4.237861 6.423857 12.883549 8.197226 19.309453 3.95834 6.42488-4.238885 8.197226-12.883549 3.958341-19.309453-36.859872-55.868303-56.343386-120.938263-56.343386-188.173741 0-188.668277 153.493721-342.161998 342.161998-342.161997s342.163022 153.493721 342.163022 342.161997c0 188.669301-153.493721 342.161998-342.163022 342.161998-66.987697 0-131.856976-19.351433-187.593198-55.960452-6.432048-4.227623-15.074664-2.436847-19.301262 3.997248-4.225575 6.434095-2.435823 15.075688 3.997248 19.301262 60.293535 39.603884 130.454253 60.53722 202.896188 60.53722 49.948198 0 98.409714-9.785272 144.039164-29.084486 44.065977-18.638808 83.638121-45.317164 117.616779-79.296847 33.979682-33.978658 60.659062-73.550802 79.296846-117.616779 19.299214-45.628426 29.084487-94.090966 29.084487-144.039164 0-49.949222-9.786296-98.410738-29.084487-144.039163-18.637785-44.065977-45.318188-83.638121-79.296846-117.616779s-73.550802-60.658038-117.616779-79.295823c-45.628426-19.299214-94.089942-29.084487-144.03814-29.084487zM416.462284 180.665589a13.895148 13.895148 0 0 0-9.854896 4.081207c-5.442974 5.442974-5.442974 14.268866 0 19.710817L604.378006 402.22823 404.83709 601.77017c-5.442974 5.442974-5.442974 14.267842 0 19.710816 5.442974 5.442974 14.267842 5.442974 19.710817 0l209.395811-209.395812a13.932008 13.932008 0 0 0 0-19.709792L426.31718 184.74782a13.892076 13.892076 0 0 0-9.854896-4.082231z"  horiz-adv-x="1024" />

    
    <glyph glyph-name="xuanze1" unicode="&#58906;" d="M850.668501 529.968164c-18.637785 44.065977-45.317164 83.638121-79.295823 117.616778-33.979682 33.979682-73.550802 60.658038-117.616779 79.296847-45.628426 19.299214-94.090966 29.084487-144.039163 29.084487-72.441935 0-142.602653-20.933335-202.897212-60.53722-6.434095-4.225575-8.223847-12.867167-3.997248-19.301262 4.225575-6.435119 12.869215-8.224871 19.301262-3.997249 55.736222 36.60902 120.6055 55.960452 187.593198 55.960453 188.669301 0 342.161998-153.493721 342.161998-342.161998S698.385013 43.765978 509.716736 43.765978 167.553714 197.259699 167.553714 385.929c0 67.234454 19.483514 132.304414 56.343386 188.17374 4.238885 6.42488 2.46654 15.070568-3.958341 19.309454-6.426928 4.239909-15.070568 2.467564-19.309453-3.958341-39.87419-60.437903-60.95087-130.815685-60.95087-203.523829 0-49.948198 9.785272-98.409714 29.084487-144.039164 18.638808-44.065977 45.317164-83.638121 79.296846-117.616779s73.550802-60.659062 117.616779-79.296846c45.62945-19.299214 94.090966-29.084487 144.040188-29.084487s98.409714 9.786296 144.039163 29.084487c44.065977 18.638808 83.638121 45.318188 117.616779 79.296846s60.658038 73.550802 79.295823 117.616779c19.299214 45.628426 29.084487 94.090966 29.084487 144.039164s-9.786296 98.409714-29.084487 144.03814zM478.296767 241.032844c3.567216 0 7.133409 1.360744 9.854896 4.081207l197.193146 197.193147c5.441951 5.442974 5.441951 14.267842 0 19.710816-5.442974 5.442974-14.26989 5.442974-19.710816 0L478.297791 274.681812l-90.485866 90.485865c-5.442974 5.441951-14.267842 5.441951-19.710816 0-5.442974-5.442974-5.442974-14.268866 0-19.71184l100.340762-100.340762a13.892076 13.892076 0 0 1 9.854896-4.082231z"  horiz-adv-x="1024" />

    
    <glyph glyph-name="shanchu" unicode="&#58907;" d="M818.885053 577.926952c-7.56856 0-13.703681-6.135121-13.703681-13.703681v-463.778073c0-30.325436-24.680756-54.998-55.018478-54.998H269.187643c-30.337722 0-55.018478 24.672565-55.018478 54.998v468.39682c0 7.56856-6.135121 13.703681-13.703681 13.703681s-13.703681-6.135121-13.703681-13.703681v-468.39682c0-45.437983 36.976595-82.404339 82.426864-82.404339H750.162894c45.45027 0 82.42584 36.966356 82.42584 82.404339V564.223271c-0.001024 7.56856-6.136145 13.703681-13.703681 13.703681zM853.318316 681.000464H647.080167c-0.368599 0.020478-0.73515 0.025597-1.107844 0.016382a4.46414 4.46414 0 0 0-3.296911 1.309549l-63.381573 63.382598a13.702657 13.702657 0 0 1-9.690051 4.01363H449.828659c-3.634793 0-7.120099-1.443678-9.690051-4.01363l-63.381573-63.382598a4.451853 4.451853 0 0 0-3.298958-1.309549c-0.368599 0.009215-0.738221 0.003072-1.105796-0.016382H166.114131c-7.56856 0-13.703681-6.135121-13.703681-13.703681s6.135121-13.703681 13.703681-13.703681h206.125522c0.35836 0 0.71672 0.004096 1.07508 0.016382a31.945222 31.945222 0 0 1 22.822404 9.338858l59.367942 59.367943h108.422289l59.366919-59.367943c6.020446-6.02147 14.28832-9.376742 22.824452-9.338858 0.357336-0.012287 0.714672-0.016382 1.073032-0.016382h206.125521c7.56856 0 13.703681 6.135121 13.703682 13.703681s-6.135121 13.703681-13.702658 13.703681zM385.964836 151.991681V564.223271c0 7.56856-6.135121 13.703681-13.703681 13.703681s-13.703681-6.135121-13.703681-13.703681v-412.23159c0-7.56856 6.135121-13.703681 13.703681-13.703681s13.703681 6.136145 13.703681 13.703681zM523.368199 151.991681V564.223271c0 7.56856-6.135121 13.703681-13.703681 13.703681s-13.703681-6.135121-13.703682-13.703681v-412.23159c0-7.56856 6.136145-13.703681 13.703682-13.703681s13.703681 6.136145 13.703681 13.703681zM660.792039 151.991681V564.223271c0 7.56856-6.135121 13.703681-13.703681 13.703681s-13.703681-6.135121-13.703681-13.703681v-412.23159c0-7.56856 6.135121-13.703681 13.703681-13.703681s13.703681 6.136145 13.703681 13.703681z"  horiz-adv-x="1024" />

    
    <glyph glyph-name="twitter" unicode="&#58969;" d="M512.274401-63.556658c247.17718 0 447.556658 200.366167 447.556658 447.556658 0 247.16387-200.379477 447.556658-447.556658 447.556658-247.188443 0-447.569968-200.392788-447.569968-447.556658 0-247.190491 200.382549-447.556658 447.569968-447.556658M736.810405 501.245109c-16.48353-7.310541-34.227463-12.256931-52.82122-14.478763 19.004336 11.383557 33.588558 29.396772 40.435279 50.868671-17.780793-10.536804-37.440415-18.183179-58.42392-22.294079-16.741549 17.872942-40.666677 29.038412-67.134113 29.038412-50.766282 0-91.948998-41.192954-91.948998-91.972548 0-7.220439 0.784296-14.222791 2.366199-20.943574-76.439183 3.841618-144.191723 40.421969-189.587726 96.109044-7.915657-13.630985-12.452493-29.422369-12.452493-46.282688 0-31.877646 16.241893-60.042683 40.924696-76.552835-15.072616 0.460748-29.26981 4.637177-41.682371 11.485946v-1.131393c0-44.585086 31.698466-81.757243 73.804725-90.185867-7.723167-2.160398-15.841554-3.239573-24.246628-3.239574a91.24866 91.24866 0 0 0-17.294447 1.63105c11.691747-36.527109 45.654023-63.139936 85.90705-63.845394-31.477307-24.682804-71.144672-39.382725-114.227718-39.382725-7.42624 0-14.762379 0.410578-21.946982 1.270642 40.706609-26.070168 89.057546-41.308653 140.992081-41.308653 169.209337 0 261.697922 140.132017 261.697922 261.695874 0 3.997248-0.078839 7.979138-0.244709 11.899595a186.466924 186.466924 0 0 1 45.883373 47.618859"  horiz-adv-x="1024" />

    
    <glyph glyph-name="facebook1" unicode="&#58970;" d="M512.262115-63.556658c247.175132 0 447.569968 200.366167 447.569968 447.556658 0 247.16387-200.394836 447.556658-447.569968 447.556658-247.17718 0-447.556658-200.392788-447.556658-447.556658-0.001024-247.190491 200.378454-447.556658 447.556658-447.556658M404.292383 459.783896h46.269378v44.969044c0 19.828563 0.499656 50.408946 14.904699 69.347753 15.172957 20.05689 36.000832 33.690947 71.826579 33.690946 58.371702 0 82.952117-8.326235 82.952118-8.326235l-11.564785-68.550147s-19.285904 5.576079-37.275569 5.57608c-17.99888 0-34.111763-6.449454-34.111764-24.438095v-52.269346h73.791416l-5.152191-66.958004h-68.639225v-232.604221h-86.731278V392.825892h-46.269378v66.958004z"  horiz-adv-x="1024" />

    
    <glyph glyph-name="Yahoo" unicode="&#58971;" d="M512.267234-63.556658c247.189467 0 447.557682 200.394836 447.557682 447.568945 0 247.16387-200.368215 447.545395-447.557682 447.545395-247.21404 0-447.555634-200.381525-447.555634-447.545395 0-247.174108 200.341594-447.568944 447.555634-447.568945M648.992785 451.663462c2.494185 0.502728 6.167885 1.323884 10.344313 2.223879h32.277985l5.036492 7.412929c0.089078 0.052218 0.281568 0.078839 0.397268 0.07884l12.489353 18.038811c-0.17918 0-0.474059 0.039932-0.615355 0.039932l1.297262 1.952549H535.292367l6.734094-27.523061h47.758107l-80.344281-72.507464c-16.406738 22.641176-54.827011 69.810549-81.628234 108.856417h60.131761V511.179868l0.680884 4.612603a3.787352 3.787352 0 0 1-0.680884 0.09215v1.887021H288.488905v-27.535348h59.144736c22.961652-17.949734 110.758795-127.589422 114.407922-138.523494 1.463132-10.241925 2.800326-70.680852-1.491801-75.244308-8.634425-9.122818-48.00384-6.720783-57.510614-7.386309l-3.276433-18.722767c17.343594-0.512967 73.791415 1.399651 91.340809 1.399651 34.577631 0 95.148639 0.167917 103.692963-0.486346l1.052554 19.646312c-8.736813 1.476443-56.405843 0.17918-62.997616 1.670981-1.466204 9.52111-3.057322 73.147391-1.6075 79.715616 6.592798 19.01355 106.789192 96.401875 117.74886 99.357832zM678.033244 301.266994l26.801223-2.133777 31.21212 120.603452c-5.205433 0.165869-52.592894 4.649463-58.734158 5.844338l0.720815-124.314013zM673.40733 281.941159l0.152559-29.43568 13.570576-1.184635 14.647704-1.091462 4.304414 28.822372-15.457597 0.757675z"  horiz-adv-x="1024" />

    
    <glyph glyph-name="Skye" unicode="&#58972;" d="M512.268258-63.558705c247.190491 0 447.557682 200.394836 447.557681 447.569968 0 247.164894-200.366167 447.546419-447.557681 447.546419-247.215064 0-447.557682-200.382549-447.557682-447.546419 0-247.174108 200.342618-447.569968 447.557682-447.569968M723.196826 335.802646a214.509095 214.509095 0 0 1 4.920793 45.818868c0 117.876846-95.55717 213.447326-213.460637 213.447326a215.374278 215.374278 0 0 1-36.503559-3.120802c-19.067816 12.025533-41.643464 19.015598-65.850161 19.015598-68.384277 0-123.801046-55.429056-123.801046-123.811285 0-22.846977 6.218056-44.22775 17.012878-62.613659-2.839234-13.865455-4.318748-28.230566-4.318748-42.917178 0-117.913706 95.559217-213.473947 213.460636-213.473947 13.362727 0 26.417265 1.233782 39.087847 3.571312 17.449054-9.365479 37.351337-14.686611 58.526309-14.686611 68.368919 0 123.787736 55.418817 123.787735 123.801047 0.001024 19.736414-4.638201 38.406962-12.862047 54.969331z m-99.05169-56.200041c-9.854896-13.981154-24.451405-25.044235-43.379974-32.906651-18.707409-7.786648-41.140736-11.730654-66.684627-11.730654-30.672533 0-56.368983 5.394852-76.439183 16.034044-14.351801 7.736478-26.162318 18.220039-35.156126 31.19881-9.05729 13.054538-13.644296 26.030237-13.644296 38.571808 0 7.799958 2.991793 14.583199 8.89142 20.133681 5.844337 5.512599 13.336106 8.289376 22.278721 8.289375 7.33921 0 13.672965-2.183947 18.811845-6.516006 4.907482-4.189739 9.110532-10.354552 12.51495-18.310141 3.7894-8.686643 7.902347-15.983874 12.244645-21.71456 4.202025-5.562769 10.228614-10.225543 17.912874-13.862383 7.73443-3.663462 18.181132-5.525909 31.004271-5.52591 17.641544 0 32.122354 3.76585 43.006255 11.204378 10.639192 7.24706 15.791383 15.970563 15.791384 26.636376 0 8.415313-2.699986 15.033708-8.236134 20.24938-5.820788 5.436831-13.478426 9.636809-22.780424 12.568193-9.702337 3.005103-22.872574 6.294847-39.164638 9.712576-22.16507 4.728302-40.977938 10.357624-55.945094 16.717999-15.315277 6.512935-27.652071 15.559985-36.672501 26.841154-9.160702 11.485946-13.812213 25.852081-13.812213 42.788168 0 16.112883 4.870622 30.669461 14.494121 43.185435 9.533396 12.449422 23.488953 22.151759 41.437663 28.756843 17.720383 6.552866 38.779657 9.878446 62.64028 9.878446 19.054506 0 35.809365-2.220807 49.80383-6.552866 14.081495-4.367895 25.927848-10.292095 35.256467-17.578063 9.380837-7.336138 16.383189-15.159646 20.765419-23.320012 4.421137-8.223847 6.667541-16.420049 6.667541-24.349017 0-7.631017-2.941623-14.557602-8.762411-20.609788-5.847409-6.075736-13.220407-9.160702-21.920361-9.160702-7.902347 0-14.096853 1.952549-18.37567 5.718399-3.994177 3.558002-8.143984 9.0706-12.7443 16.986258-5.321132 10.099605-11.770586 18.078743-19.159966 23.69373-7.181532 5.473691-19.170205 8.223847-35.653735 8.223847-15.278417 0-27.741149-3.060393-36.98069-9.136128-8.904731-5.820788-13.233718-12.51495-13.233718-20.457229 0-4.868575 1.399651-8.92828 4.278817-12.410514 3.018414-3.739229 7.310541-6.952181 12.70744-9.675717 5.612939-2.825923 11.410178-5.063113 17.191035-6.655254 5.923177-1.65767 15.881485-4.086326 29.527829-7.247061 17.281137-3.712608 33.161598-7.865487 47.192922-12.362391 14.222791-4.560385 26.496104-10.136465 36.530181-16.67602 10.215304-6.657302 18.310141-15.189339 24.054138-25.404643 5.76857-10.252164 8.683571-22.896124 8.683571-37.609356 0-17.566801-5.036492-33.613131-14.941558-47.617834z"  horiz-adv-x="1024" />

    
    <glyph glyph-name="Google" unicode="&#58973;" d="M512.281568-63.569968c247.188443 0 447.556658 200.385621 447.556658 447.583279 0 247.168989-200.369239 447.556658-447.556658 447.556657-247.17718 0-447.583279-200.387669-447.583278-447.556657 0-247.198682 200.405075-447.583279 447.583278-447.583279M438.23111 183.53554c-53.219511 0-91.63876 33.665349-91.63876 74.128274 0 39.652007 47.669029 72.663094 100.878301 72.086646 12.412562-0.14232 23.988609-2.133777 34.485482-5.525909 28.859232-20.096821 49.584719-31.429184 55.432128-54.328379 1.104772-4.650487 1.707841-9.405411 1.70784-14.286272 0-40.477259-26.056858-72.07436-100.864991-72.07436m13.981154 237.250612c-35.695714 1.067912-69.654919 39.949958-75.810517 86.835714-6.167885 46.902139 17.797175 82.78932 53.489817 81.735742 35.695714-1.079175 69.654919-38.689555 75.810517-85.591694 6.155599-46.898043-17.78284-84.057914-53.489817-82.979762m74.034076-69.449118c-12.526213 8.865823-36.464652 30.425776-36.464652 43.109668 0 14.879102 4.239909 22.176332 26.596446 39.652007 22.922745 17.923113 39.151327 43.110692 39.151327 72.381525 0 34.873534-15.533364 68.847073-44.674165 80.076024h43.943111l31.017582 22.410802H447.199322c-62.124242 0-120.613691-47.081319-120.613692-101.599117 0-55.72803 42.364279-100.715504 105.579983-100.715504 4.407826 0 8.663094 0.089078 12.849761 0.387029-4.096565-7.83989-7.052522-16.704689-7.052522-25.865391 0-15.497528 8.339546-28.065721 18.873278-38.317885-7.965828 0-15.662374-0.231398-24.012158-0.231398-76.97877 0-136.226919-49.007247-136.226919-99.851345 0-50.062873 64.953237-81.375334 141.905387-81.375334 87.743901 0 136.223847 49.778233 136.223847 99.852369 0 40.152687-11.847377 64.194538-48.479947 90.08655m201.679812 65.365863h-53.965924V470.654487h-43.430143v-53.952614h-53.953638v-43.431167h53.953638v-53.967972h43.430143v53.967972h53.965924v43.432191z"  horiz-adv-x="1024" />

    
    <glyph glyph-name="anzhuo" unicode="&#58974;" d="M512.268258-63.572016c247.19561 0 447.569968 200.400979 447.569968 447.583279 0 247.172061-200.374358 447.559729-447.569968 447.559729-247.222231 0-447.569968-200.387669-447.569968-447.559729 0-247.181276 200.347737-447.583279 447.569968-447.583279M579.10954 568.826659l4.858336 7.323852 4.831714 7.221463 10.794823 16.202986a4.310557 4.310557 0 0 1-1.208184 6.003039 4.294175 4.294175 0 0 1-5.988706-1.208184l-11.589358-17.373287-4.883933-7.29723-4.934103-7.402691c-15.650087 6.065497-33.100165 9.470939-51.526005 9.470939-18.400243 0-35.87387-3.405443-51.526005-9.470939l-4.934103 7.402691-4.855265 7.29723-11.591405 17.373287a4.344345 4.344345 0 0 1-6.013279 1.208184 4.352537 4.352537 0 0 1-1.208185-6.003039l10.794823-16.202986 4.831715-7.221463 4.881885-7.323852c-36.775913-17.115267-61.652231-49.560145-61.652231-86.696466h242.545123c-0.002048 37.136321-24.877342 69.580175-61.627657 86.696466z m-111.609644-52.042043c-7.194842 0-13.00232 5.820788-13.00232 13.005392 0 7.168221 5.807478 12.976723 13.00232 12.976722 7.171293 0 12.97877-5.807478 12.97877-12.976722 0-7.184603-5.807478-13.005391-12.97877-13.005392z m103.925384 0c-7.168221 0-12.975699 5.820788-12.975698 13.005392 0 7.168221 5.807478 12.976723 12.975698 12.976722 7.19689 0 13.005391-5.807478 13.005392-12.976722 0-7.184603-5.807478-13.005391-13.005392-13.005392zM400.065785 464.809125h-1.876782v-190.568608c0-15.137121 12.310173-27.444222 27.447294-27.444222h19.789655a25.636041 25.636041 0 0 1-1.029004-7.210201V184.721199c0-14.339514 11.641576-25.98109 25.98109-25.98109s26.007711 11.641576 26.007711 25.98109V239.586094c0 2.507495-0.387029 4.923865-1.055626 7.210201h48.262883a25.635017 25.635017 0 0 1-1.025934-7.210201V184.721199c0-14.339514 11.639528-25.98109 25.981091-25.98109 14.366135 0 26.005663 11.641576 26.005663 25.98109V239.586094c0 2.507495-0.384981 4.923865-1.052554 7.210201h19.812181c15.137121 0 27.420673 12.308125 27.420673 27.444222V464.809125H400.065785zM354.887869 464.809125c-14.366135 0-26.007711-11.62929-26.007712-25.98109v-111.172444c0-14.339514 11.641576-25.98109 26.007712-25.981091 14.339514 0 25.98109 11.641576 25.98109 25.981091V438.827011c0 14.352824-11.641576 25.982114-25.98109 25.982114zM684.063929 464.809125c-14.366135 0-26.007711-11.62929-26.007711-25.98109v-111.172444c0-14.339514 11.641576-25.98109 26.007711-25.981091 14.339514 0 25.98109 11.641576 25.98109 25.981091V438.827011c0 14.352824-11.641576 25.982114-25.98109 25.982114z"  horiz-adv-x="1024" />

    
    <glyph glyph-name="yamaxun" unicode="&#58975;" d="M512.269-63.57c247.195 0 447.569 200.401 447.569 447.582 0 247.171-200.374 447.559-447.569 447.559-247.223 0-447.572-200.388-447.572-447.559 0.001-247.182 200.349-447.582 447.572-447.582M671.291 245.485c-2.234 0.024-4.521-0.503-6.655-1.505-2.39-0.963-4.858-2.068-7.171-3.045l-3.392-1.413-4.418-1.773v-0.050c-48.031-19.468-98.478-30.892-145.148-31.892-1.721-0.052-3.442-0.052-5.113-0.052-73.421-0.040-133.299 34.012-193.743 67.562-2.107 1.105-4.266 1.684-6.374 1.684-2.724 0-5.5-1.016-7.529-2.918-2.031-1.913-3.24-4.689-3.213-7.503-0.027-3.663 1.953-7.016 4.703-9.203 56.718-49.237 118.883-94.994 202.483-95.033 1.619 0 3.29 0.040 4.934 0.077 53.194 1.197 113.331 19.148 159.998 48.481l0.285 0.181c6.116 3.647 12.231 7.8 17.99 12.411 3.571 2.66 6.039 6.811 6.039 11.129-0.157 7.671-6.659 12.863-13.675 12.863zM736.054 272.674v0.024c-0.206 4.679-1.185 8.213-3.137 11.182l-0.205 0.268-0.231 0.295c-1.979 2.16-3.878 2.968-5.936 3.882-6.116 2.353-15.034 3.61-25.776 3.65-7.708 0-16.215-0.734-24.773-2.598l-0.024 0.566-8.611-2.879-0.153-0.063-4.858-1.582v-0.218c-5.705-2.363-10.897-5.318-15.729-8.8-2.982-2.25-5.474-5.219-5.603-9.766-0.077-2.469 1.185-5.321 3.266-7.002 2.082-1.698 4.497-2.263 6.629-2.263 0.513 0 0.977 0.027 1.413 0.089l0.411 0.040 0.31 0.066c4.213 0.885 10.356 1.476 17.526 2.492 6.168 0.682 12.694 1.182 18.347 1.182 4.011 0.027 7.607-0.258 10.076-0.798 1.232-0.255 2.158-0.576 2.671-0.834 0.181-0.066 0.308-0.142 0.387-0.192 0.102-0.347 0.255-1.221 0.231-2.469 0.050-4.742-1.956-13.529-4.705-22.1-2.697-8.584-5.96-17.182-8.118-22.897-0.516-1.324-0.85-2.763-0.85-4.344-0.050-2.3 0.9-5.076 2.879-6.927 1.953-1.85 4.471-2.581 6.578-2.581h0.102c3.161 0.040 5.861 1.284 8.174 3.111 21.842 19.644 29.45 50.997 29.757 68.652l-0.049 2.817zM536.272 483.247c-12.85-0.963-27.679-1.939-42.508-3.892-22.716-2.995-45.41-6.927-64.168-15.831-36.545-14.816-61.242-46.413-61.242-92.822 0-58.299 37.52-87.918 84.96-87.918 15.779 0 28.629 1.992 40.45 4.934 18.813 5.936 34.592 16.795 53.352 36.571 10.872-14.829 13.85-21.754 32.586-37.547 4.958-1.966 9.892-1.966 13.823 0.977 11.874 9.895 32.639 27.679 43.483 37.534 4.934 3.958 3.958 9.895 0.977 14.789-10.845 13.852-21.742 25.713-21.742 52.389v88.878c0 37.534 2.982 72.11-24.671 97.756-22.718 20.727-58.284 28.642-85.936 28.642h-11.874c-50.344-2.916-103.667-24.671-115.541-86.899-1.979-7.916 3.958-10.857 7.916-11.834l55.304-6.913c5.934 0.977 8.889 5.936 9.868 10.832 4.934 21.742 22.716 32.61 42.452 34.589h3.984c11.847 0 24.697-4.944 31.584-14.826 7.916-11.847 6.94-27.665 6.94-41.492v-7.917zM525.401 365.754c-6.913-13.8-18.786-22.691-31.636-25.713-1.953 0-4.907-0.977-7.889-0.977-21.716 0-34.563 16.808-34.563 41.492 0 31.621 18.758 46.423 42.452 53.35 12.85 2.955 27.679 3.958 42.508 3.958v-11.874c0-22.703 0.976-40.473-10.872-60.236z"  horiz-adv-x="1024" />

    
    <glyph glyph-name="linkedin" unicode="&#58976;" d="M512.267234-63.569968c247.223255 0 447.572016 200.400979 447.572016 447.582255 0 247.171037-200.347737 447.558705-447.572016 447.558705-247.194586 0-447.568944-200.387669-447.568944-447.558705 0-247.1823 200.373334-447.582255 447.568944-447.582255M387.013295 196.811237h-87.249365V476.000192h87.249365v-279.188955z m-45.860848 314.114707h-0.628666c-31.57048 0-52.042043 21.341866-52.042043 48.378582 0 27.573232 21.086918 48.478922 53.286064 48.478922 32.175596 0 51.975491-20.852449 52.607228-48.402131 0.001024-27.046955-20.430608-48.455373-53.222583-48.455373z m394.899259-314.114707H637.125954V341.288624c0 37.815157-15.457597 63.618091-49.496664 63.61809-26.03126 0-40.488521-17.410146-47.233878-34.204937-2.518758-6.013279-2.133777-14.405043-2.133777-22.820356v-151.06916h-98.001184s1.273713 255.921161 0 279.188955h98.001184v-43.815125c5.794167 19.157918 37.097413 46.5018 87.093733 46.5018 61.986018 0 110.696338-40.168045 110.696338-126.630041v-155.246613z"  horiz-adv-x="1024" />

    
    <glyph glyph-name="YouTube" unicode="&#58977;" d="M512.254947-63.556658c247.190491 0 447.583279 200.392788 447.583279 447.569969 0 247.161822-200.392788 447.544371-447.583279 447.544371-247.188443 0-447.556658-200.382549-447.556657-447.544371 0-247.178204 200.368215-447.569968 447.556657-447.569969M599.154143 383.781912l-146.531301-86.062681V469.85688l146.531301-86.074968z m136.892444-79.792407V464.010495s0 77.134401-77.14464 77.134401H365.584399s-77.094469 0-77.09447-77.134401v-160.019966s0-77.12109 77.09447-77.12109h293.318572c-0.001024 0 77.143616 0 77.143616 77.120066"  horiz-adv-x="1024" />

    
    <glyph glyph-name="Qzone" unicode="&#58978;" d="M512.27133 831.570992c-247.186395 0-447.574064-200.382549-447.574064-447.56792 0.001024-247.191515 200.387669-447.57304 447.574064-447.57304 247.184347 0 447.566897 200.382549 447.566896 447.57304 0 247.185371-200.382549 447.56792-447.566896 447.56792z m171.150623-515.261075s1.968931-12.921433 4.257315-22.540835c0.145392-0.641976-74.167181-2.330363-135.095525 0-31.988225 1.224567-70.4986 7.153887-70.498601 7.153887l176.363224 125.750524s-63.787032 11.492089-128.275425 13.779448c-70.628634 2.508519-142.918009-4.272673-153.250036-6.889724-6.479146-1.645384 45.670405-1.516374 105.163261-6.889724 41.640392-3.760731 96.443854-13.779449 96.443855-13.779449l-176.364248-131.280529s75.53202-4.585982 143.279441-4.138544c76.244645 0.506823 145.065097 9.992097 145.492057 8.162414 13.266482-57.442014 37.760891-170.97861 28.648311-180.247845-12.408466-12.613243-189.413666 99.585134-189.413665 99.585135S351.785496 96.531908 340.759275 105.390564c-11.028269 8.858656 36.16363 210.919353 36.16363 210.919353s-159.762971 133.03342-153.229559 149.370535c6.533412 16.337114 211.771226 30.773897 211.771226 30.773897s76.249764 191.895564 94.707345 191.895564c18.456557 0 94.707345-191.895564 94.707345-191.895564s206.095829-14.518694 211.771225-30.773897c5.675396-16.255203-153.228534-149.370535-153.228534-149.370535z"  horiz-adv-x="1024" />

    
    <glyph glyph-name="QQ" unicode="&#58979;" d="M512.268258 831.566897c-247.183323 0-447.569968-200.380501-447.569968-447.563825 0-247.189467 200.385621-447.570992 447.569968-447.570992s447.569968 200.380501 447.569968 447.569968c0 247.184347-200.386645 447.564849-447.569968 447.564849z m252.85872-584.692787c-18.997168-16.287968-43.668709 53.628042-47.2134 42.875198-8.642616-26.161294-12.695154-43.646184-38.148944-72.127602-1.35972-1.521494 29.43056-12.647032 38.148944-36.396051 8.346713-22.756875 24.596797-58.811973-81.725503-70.125906-62.389428-6.635801-107.471099 33.244533-111.964932 32.85648-8.325212-0.734126-4.618747 0-13.568528 0-7.321804 0-7.807126-0.534468-14.69685 0-1.899307 0.140272-22.632985-32.85648-115.364231-32.85648-71.878798 0-90.48177 45.243445-76.032701 70.125906 14.464428 24.877342 38.579999 32.122354 35.176604 36.06636-16.73643 19.39546-28.287904 40.1404-35.176604 58.882621-1.705793 4.666869-3.135137 9.209848-4.262434 13.574672-2.611931 10.008479-22.627866-58.76385-44.111028-42.875198-21.483162 15.883533-19.567472 56.309597-5.659014 95.003248 14.033372 39.006959 49.37687 76.562049 49.771065 84.854496 1.412962 30.849665-3.044011 35.975235 0 44.078263 6.780169 18.149391 15.034732 11.190043 15.034733 20.609788 0 118.64476 88.172909 214.829571 196.933079 214.829571 108.755051 0 196.928984-96.184811 196.928984-214.829571 0-4.554242 11.815637 0 17.474651-20.609788 1.165181-4.256291 1.968931-20.684531 0.58771-44.078263-0.658358-11.238165 29.954789-24.914202 45.777913-84.854496 15.845649-59.945414 0-88.215912-7.909514-95.003248z"  horiz-adv-x="1024" />

    
    <glyph glyph-name="xinlang" unicode="&#58980;" d="M394.574688 320.226279c-17.916969-8.356952-27.35924-26.026141-21.08999-39.47078 6.26413-13.439519 25.870511-17.561681 43.78748-9.204729 17.923113 8.356952 27.375622 26.03126 21.111491 39.47078-6.26925 13.439519-25.885869 17.561681-43.808981 9.204729zM442.354296 436.578559c-97.905963-13.763067-170.017182-76.508807-161.083782-140.155566 8.950806-63.64164 95.581743-104.078967 193.493848-90.315901 97.911082 13.757947 170.022302 76.503688 161.087879 140.150447-8.950806 63.64164-95.585838 104.077943-193.497945 90.32102z m14.308798-213.136065c-58.240645-11.319052-113.094277 18.845633-122.524262 67.374726-9.441247 48.529093 30.126802 97.042827 88.362328 108.36188 58.240645 11.325196 113.093254-18.845633 122.529381-67.374726 9.414626-48.523973-30.131921-97.042827-88.367447-108.36188zM458.560353 330.293119m-17.904682 0a17.904683 17.904683 0 1 1 35.809365 0 17.904683 17.904683 0 1 1-35.809365 0ZM512.270306 831.570992c-247.185371 0-447.57304-200.382549-447.57304-447.56792 0.001024-247.191515 200.387669-447.57304 447.57304-447.57304 247.180252 0 447.56792 200.382549 447.56792 447.57304 0 247.185371-200.387669 447.56792-447.56792 447.56792z m-44.758123-680.305246c-153.250036 0-277.495449 80.150767-277.495449 179.029421 0 98.871486 186.063513 254.986354 257.247092 254.986353 29.840114 0 88.421713-22.249028 47.439679-92.737389-2.864831-4.932056 92.413842 40.98101 144.493769 10.784584 52.101429-30.19745 0-78.721423 0-84.111155 0-5.394852 104.607292-5.394852 104.607292-88.923417 0-98.87763-123.042347-179.028397-276.292383-179.028397z m218.072216 366.078935c-17.258611 20.489993-48.102133 15.694114-48.102133 15.694115-9.061385-0.069624-16.3965 6.142288-17.604684 14.702993 1.213304 8.759339 8.603708 16.452813 17.551442 17.630281 0 0 37.360552 10.207113 69.710208-18.910138 32.354776-29.117251 19.120035-77.269554 19.120035-77.26853-1.397603-9.808821-10.990385-17.626186-20.928216-17.626186h-1.769274c-9.969571 0-15.776025 7.671973-13.035084 17.134721 0 0 12.300958 28.156846-4.942294 48.642744z m122.692178-61.892844c-1.24914-13.6402-13.141568-24.85584-26.69781-26.356856-13.156926 1.503064-21.946982 12.743277-20.029245 26.393716 0 0 14.6047 56.465228-20.965075 107.541748-35.592302 51.076519-112.074488 42.249604-112.074488 42.249604-13.616651 0.015358-25.154815 9.968548-26.578015 23.340489 1.411938 13.368871 12.803686 24.014206 26.648663 24.110452 0 0 79.632681 8.038524 138.946358-48.038652 59.314701-56.072056 40.750636-149.241525 40.749612-149.240501z"  horiz-adv-x="1024" />

    
    <glyph glyph-name="QQ_weibo" unicode="&#58981;" d="M696.737 474.938c0.029-0.273 0.045-0.589 0.045-0.91 0-0.365-0.021-0.724-0.063-1.078 0.205-0.594 0.348-1.249 0.417-1.919l-0.399 3.906zM745.2 498.148c-0.094 0.082-0.176 0.17-0.266 0.254-0.115 0.090-0.232 0.172-0.343 0.269l0.609-0.523zM512.27 831.571c-247.185 0-447.572-200.383-447.572-447.568 0-247.192 200.387-447.573 447.572-447.573s447.568 200.383 447.568 447.573c0 247.185-200.383 447.568-447.568 447.568zM280.661 125.687c-2.509-19.747-22.649-15.225-25.46 0-2.794 15.22-12.797 64.817 12.674 154.016 25.492 89.199 82.050 141.898 81.44 143.436-2.487 6.188-3.847 12.981-3.847 20.146 0 29.662 23.328 51.529 52.991 51.529 29.668 0 52.009-21.866 52.009-51.529 0-29.658-22.341-52.981-52.009-52.981-12.279 0-22.18 2.223-31.082 9.010-2.357 1.796-49.894-52.425-73.525-128.206-20.642-66.134-10.671-125.675-13.191-145.421zM553.874 430.649c-3.399-56.859-48.482-149.128-157.809-149.128-21.328 0-53.515 4.268-45.73 21.77 7.774 17.496 41.235 7.289 45.731 7.288 74.831 0 125.82 67.295 128.54 120.070 2.719 52.77-30.634 137.15-128.54 137.15-99.508 0-129.457-86.56-129.457-137.15 0-30.089 24.688-59.741 9.020-68.416-15.662-8.67-38.937 18.117-38.937 68.416 0 80.755 53.045 166.247 161.769 166.247 108.708 0 159.531-97.292 155.414-166.247zM688.574 466.080s-39.671-2.855-69.911 28.869c-30.217 31.724-35.084 104.446 21.253 136.304 56.325 31.858 109.245-4.111 123.262-30.526 12.349-23.28 15.846-40.776 10.256-65.109-5.6-24.338-16.595-35.678-16.597-35.679-2.9-3.931-8.186-4.458-11.904-1.537 0.090-0.084 0.172-0.173 0.266-0.254l-0.609 0.523c0.112-0.096 0.229-0.179 0.343-0.269-3.5 3.287-3.754 8.54-0.576 11.971 0 0 3.275 1.187 10.17 17.41 6.874 16.223 6.696 51.6-10.186 70.774-28.826 32.727-62.93 36.094-94.831 18.463-22.735-12.56-43.113-42.147-35.5-77.583 7.591-35.43 37.454-49.63 45.007-52.495 16.217-6.157 28.249-6.205 28.249-6.205 4.336-0.415 8.17-3.666 9.456-7.744 0.037 0.311 0.058 0.67 0.058 1.035 0 0.32-0.016 0.637-0.048 0.949l0.403-3.945c-0.11 1.016-0.358 1.946-0.725 2.813-0.156-4.968-3.495-7.822-7.835-7.766zM817.53 406.414c-1.824-0.324-36.952 8.060-76.784 41.807-39.833 33.752-55.856 79.342-56.25 79.342-13.769 0-29.005 12.828-29.005 26.517s7.127 31.444 29.005 31.444c21.856 0 29.932-17.756 29.932-31.444s-7.019-18.527-12.156-21.818c-1.095-0.706 8.358-38.905 45.886-71.685 18.958-16.552 51.788-35.155 67.472-39.908 15.667-4.754 3.189-14.022 1.899-14.255z"  horiz-adv-x="1024" />

    
    <glyph glyph-name="zhifubao" unicode="&#58982;" d="M357.837682 350.749324c-76.125874-4.845025-94.722703-38.338362-94.722703-69.155263 0-30.817924 18.796487-73.660358 108.258467-73.660358 89.440479 0 165.366695 90.201225 165.366695 90.201226s-102.79911 57.457373-178.902459 52.614395zM512.268258 831.566897c-247.183323 0-447.569968-200.380501-447.569968-447.569969 0-247.183323 200.385621-447.564849 447.569968-447.564848s447.569968 200.380501 447.569968 447.564848c0 247.190491-200.386645 447.569968-447.569968 447.569969z m337.55349-683.248917L596.319004 268.487305s-47.941383-53.017806-96.831907-76.352152c-48.896668-23.334347-105.038348-37.852017-165.836658-23.517622-60.798311 14.340538-103.94279 53.217464-96.528837 124.994896 7.428288 71.782552 84.158254 96.53498 147.265427 96.53498 63.128674 0 182.87923-40.900123 182.879229-40.900123s10.061721 22.545955 19.838802 48.324316c9.769914 25.772218 12.542595 46.484394 12.542595 46.484394H344.640824V469.613195H468.529925v48.890525l-154.446958-1.110916v32.224743H468.529925v73.335786h81.116291v-73.335786h165.566352v-32.224743l-165.566352-1.110916v-45.556753l136.70712-1.110916s-2.470635-25.557202-19.799894-72.041595c-17.312877-46.484394-33.56808-70.190411-33.56808-70.190411l265.246708-87.034348s-9.522134-24.893724-20.981458-46.716816c-11.475707-21.816949-27.428864-45.313069-27.428864-45.313069z"  horiz-adv-x="1024" />

    
    <glyph glyph-name="taobao" unicode="&#58983;" d="M512.267234 831.56792c-247.184347 0-447.568944-200.381525-447.568944-447.570992 0-247.183323 200.385621-447.564849 447.568944-447.564848 247.184347 0 447.570992 200.381525 447.570992 447.564848 0 247.189467-200.386645 447.570992-447.570992 447.570992zM297.432544 634.63996c29.668101 0 53.708929-24.045947 53.708928-53.708928s-24.040827-53.708929-53.708928-53.708929c-29.660934 0-53.708929 24.045947-53.708929 53.708929s24.046971 53.708929 53.708929 53.708928zM273.336426 161.365351l-90.967091 66.112276S309.786744 332.057274 302.568352 366.915449c-7.213272 34.858176-94.954101 78.132689-94.954101 78.13269l40.873502 57.695938s104.569408-68.512263 111.780633-122.605149c7.218392-54.091862-86.93196-218.773577-86.93196-218.773577z m540.110772 102.174541s-8.416337-68.518406-67.315341-92.554114c-58.899003-24.045947-149.057226-6.010207-149.057225-6.010207l4.812261 37.259187s54.086742-12.020414 87.740829-1.197946c33.66023 10.817348 43.274513 37.259187 43.274513 37.259187V506.354296s-4.795879 27.644904-36.055098 46.87859c-31.260243 19.233686-46.889852 16.827555-80.544963 12.020414-33.66023-4.812261-85.345961-28.847969-85.345961-28.847969l-28.84285-56.497993h194.73275v-38.467371H577.846065v-48.081655h123.796951v-33.655111l-121.402083-4.807141v-91.356168l57.701057 25.243892-4.812261 39.665318 46.883709 9.619402 34.857152-91.356168-57.701057-26.446958-7.213272 32.457165s-109.101125-45.966308-152.871199-49.570384c-43.771098-3.604076-86.753804 6.835458-107.611371 36.417553-20.841186 29.575951-15.969539 88.87939-15.969539 88.87939l77.787639-1.937191s-6.069592-33.795383 9.23647-55.171037c15.306062-21.375654 50.002464-16.2122 50.002464-16.2122v102.173516l-120.199018 3.604076v32.452046H511.727647l-1.197946 48.081655-37.275569 7.213272s-31.237717-48.081655-51.685732-46.87859c-20.426512 1.203065-22.842882 28.847969-22.842881 28.847969l66.117395 81.736766-36.056122 3.609196-54.085719-63.706145-40.874526 36.061241c0.002048 0 30.047963 26.440815 52.890845 64.908186 22.842882 38.462252 31.255123 76.929624 31.255123 76.929624l66.117395-26.446958-19.244949-37.264306s4.813285-4.807142 21.64596-2.401012c16.826531 2.401011 127.411266 57.695938 203.137825 44.47246 76.76785-13.401635 123.818452-73.320428 123.818452-120.197994v-224.783784z"  horiz-adv-x="1024" />

    
    <glyph glyph-name="weichat" unicode="&#58984;" d="M548.075576 366.097365a17.903659 17.901611 90 1 1 35.803222 0 17.903659 17.901611 90 1 1-35.803222 0ZM512.268258 831.56792c-247.184347 0-447.569968-200.380501-447.569968-447.564848 0-247.189467 200.386645-447.569968 447.569968-447.569969S959.838226 136.813605 959.838226 384.003072c0 247.183323-200.386645 447.564849-447.569968 447.564848zM728.408402 197.584271c-8.022142-4.876766 17.383525-46.020574 8.378454-49.684036-5.530005-2.255619-45.189179 32.570816-51.059114 30.82202-17.846321-5.335466-37.059529-8.233062-57.091845-8.233062-73.276401 0-135.741597 38.850305-159.658534 93.31998a238.774153 238.774153 0 0 0-37.269426-2.907834c-25.405667 0-49.715776 3.975747-72.186987 11.243285-11.297551 3.652199-52.580607-39.573168-62.836867-34.334971-6.107476 3.118755 18.440175 54.215752 12.764779 57.84645-50.735566 32.409042-83.62481 84.466444-83.62481 143.159646 0 98.261251 92.18142 177.921577 205.883885 177.921576 107.217176 0 195.282576-70.822148 204.982866-161.282416 90.196106-3.528309 162.021662-65.939239 162.021661-142.405043 0-47.486777-27.693026-89.553106-70.304062-115.465595zM673.392996 366.097365m-17.903659 0a17.903659 17.903659 0 1 1 35.807318 0 17.903659 17.903659 0 1 1-35.807318 0ZM431.707937 580.931032c-93.934311 0-170.076567-63.878158-170.076568-142.685587 0-44.909658 24.737069-88.118643 63.409218-114.274818 2.023197-1.369959 12.19345-6.042971 11.528949-12.705393-1.467228-14.578079-5.83717-24.564033-5.83717-24.564033s11.923145 13.714944 20.803302 20.317981c3.938887 2.940599 11.243285 0.734126 13.287984 0 20.53402-7.375046 43.13936-11.454205 66.883261-11.454205 9.48425 0 18.796487 0.653239 27.8548 1.904426a121.078535 121.078535 0 0 0-1.003408 15.581487c0 70.784264 61.547795 129.521494 142.237126 140.66239-9.18118 71.528629-81.384549 127.217752-169.087494 127.217752z m-71.615659-107.417857c-14.82074 0-26.851393 12.025533-26.851393 26.857535 0 14.830979 12.030653 26.851393 26.851393 26.851393 14.82586 0 26.857536-12.020414 26.857536-26.851393 0-14.830979-12.031676-26.857536-26.857536-26.857535z m143.225174 0c-14.824836 0-26.856512 12.025533-26.856512 26.857535 0 14.830979 12.030653 26.851393 26.856512 26.851393 14.82074 0 26.851393-12.020414 26.851393-26.851393 0-14.830979-12.030653-26.857536-26.851393-26.857535z"  horiz-adv-x="1024" />

    
    <glyph glyph-name="douban1" unicode="&#58985;" d="M387.17814 453.706113h255.693858v-88.37871H387.17814zM409.718975 319.959045c22.379062-37.237685 42.756427-77.102661 61.121859-119.583663h84.968147c26.048667 40.383061 46.759819 80.248036 62.136529 119.583663H409.718975zM512.270306 831.57304c-247.185371 0-447.57304-200.387669-447.57304-447.57304s200.387669-447.57304 447.57304-447.57304c247.180252 0 447.56792 200.387669 447.56792 447.57304S759.450558 831.57304 512.270306 831.57304zM292.508679 598.205001h443.726303v-45.104196H292.508679v45.104196z m453.950822-443.46214H279.139808v45.632521h139.767514c-17.134721 37.237685-35.23599 69.409186-54.28128 96.509383l35.926088 23.075303h-62.945398V500.126002h355.083431V319.959045H626.610652l35.937351-23.603629c-16.971923-37.237685-34.625754-69.23103-52.974803-95.980034h136.886301v-45.632521z"  horiz-adv-x="1024" />

    
    <glyph glyph-name="renren" unicode="&#58986;" d="M512.824228 246.755339c31.005295 37.242805 53.151935 84.994769 53.151935 137.246709 0 54.479914-20.28624 104.228454-53.708929 142.102996-33.422689-37.873518-53.708929-87.622058-53.708929-142.102996 0-52.085046 22.093398-100.05305 52.958421-137.246709 0.73515-0.156654 1.182588-0.156654 1.307502 0zM512.268258 831.56792c-247.184347 0-447.569968-200.380501-447.569968-447.564848 0-247.189467 200.386645-447.569968 447.569968-447.569969S959.838226 136.813605 959.838226 384.003072c0 247.183323-200.386645 447.564849-447.569968 447.564848zM186.153615 246.41029c-31.118947 37.269426-49.845809 85.243573-49.845809 137.592782 0 106.57008 77.609484 195.023533 179.388804 211.920713 0.178156 0.026621 0-131.922505 0-171.921609s-10.078103-62.912634-45.027405-110.09327c-34.945206-47.185755-84.322076-67.746396-84.51559-67.498616z m164.988881-77.241909c-33.546579 0-65.308525 7.693474-93.610764 21.413538-1.203065 0.582591 30.488233 25.971875 53.940327 57.356008 23.954821 32.025085 39.670437 70.056282 39.670437 70.056282s20.015934-41.888173 41.515478-70.056282c21.483162-28.168109 53.600397-56.621882 52.596989-57.107204-28.405651-13.877742-60.349849-21.662342-94.112467-21.662342z m160.840098 77.032013c-0.145392 0.183275-0.302046 0.366551-0.46382 0.555969-7.698594 1.661766-47.190875 21.138113-84.6446 71.064809-33.389924 44.515462-39.92436 66.1819-39.92436 102.955765 0 36.778985-0.054266 175.093606 0 175.088486 49.591886-8.324188 93.432608-33.638728 125.318444-69.759355 31.956485 36.206633 75.926216 61.559057 125.679876 69.81874 0.178156 0.026621 0-131.922505 0-171.921608s-10.083223-62.912634-45.027405-110.09327c-34.945206-47.186779-80.723119-67.96346-80.938135-67.709536z m161.411426-77.032013c-33.552722 0-65.308525 7.693474-93.615883 21.413538-1.197946 0.582591 30.487209 25.971875 53.945446 57.356008 23.948678 32.025085 39.670437 70.056282 39.670437 70.056282s20.015934-41.888173 41.515478-70.056282c21.483162-28.168109 53.600397-56.621882 52.596989-57.107204-28.409746-13.877742-60.348825-21.662342-94.112467-21.662342z m75.726558 148.651767c-33.384805 44.515462-39.92436 66.1819-39.92436 102.955765 0 36.778985-0.054266 175.093606 0 175.088486C810.798407 578.815685 888.223591 490.449262 888.223591 384.003072c0-52.25194-18.651095-100.144176-49.662534-137.381862-1.462108-1.770298-48.426704 16.519366-89.440479 71.198938z"  horiz-adv-x="1024" />

    
    <glyph glyph-name="email" unicode="&#58987;" d="M512.268258 831.569968c-247.183323 0-447.569968-200.384597-447.569968-447.57304 0-247.1823 200.385621-447.56792 447.569968-447.56792s447.569968 200.385621 447.569968 447.56792c0 247.189467-200.386645 447.57304-447.569968 447.57304z m250.63996-279.572912L513.037196 307.315085l-252.244389 244.681971h502.115411z m-519.180508-35.60766l139.605741-133.484953-139.605741-130.956981V516.389396z m17.561682-300.386452L409.779385 361.058825l102.685459-98.191626 101.170109 98.191626 150.007391-145.055881H261.289392z m519.519413 35.944518L637.395236 383.268946l143.413569 135.081191v-266.402675z"  horiz-adv-x="1024" />

    
    <glyph glyph-name="youku" unicode="&#58988;" d="M512.270306 831.57304c-247.185371 0-447.57304-200.387669-447.57304-447.57304s200.387669-447.57304 447.57304-447.57304 447.56792 200.387669 447.56792 447.57304S759.455677 831.57304 512.270306 831.57304zM176.771754 263.989377c0-4.731374-16.563393-10.369911-25.874606-2.541283-9.3235 7.833747-4.009535 21.035724-4.009535 21.035724l43.469051 66.133777-50.806214 74.469227c-4.515334 6.992113-7.714976 12.44635-9.581519 16.363736-1.877806 3.917385-2.805446 7.315661-2.805445 10.208136 0 4.759019 1.893164 8.858656 5.691778 12.306078 3.777113 3.452541 8.465484 5.179836 14.033372 5.179836 5.853552 0 10.294143-1.613643 13.320749-4.828643 3.026605-3.216024 7.553202-9.624522 13.606412-19.228567l39.439038-62.244036 39.886477 62.244036c2.401011 3.820116 4.424208 7.040235 6.05321 9.652167a59.971011 59.971011 0 0 0 5.389733 7.343306c1.968931 2.28224 4.153903 4.030013 6.549794 5.239221 2.401011 1.214328 5.335466 1.82354 8.794151 1.82354 5.368231 0 9.862063-1.704769 13.46102-5.109188 3.598957-3.399299 5.390756-7.343306 5.390757-11.815637 0-3.636841-0.912282-7.272657-2.725583-10.909498-1.82354-3.636841-4.957653-8.67538-9.36036-15.106404L176.771754 263.989377z m275.234709 86.716944c-3.345033-10.429296-8.486985-19.509111-15.413569-27.240469-6.926584-7.731358-15.504695-13.698562-25.724095-17.906731-10.223495-4.208169-21.969507-6.425904-35.252372-6.657302-13.21324-0.232422-25.065737 1.635145-35.5708 5.58939-10.531684 3.960388-19.336074 9.640904-26.46334 17.053834-7.105764 7.40781-12.548739 16.380117-16.30947 26.905659-3.760731 10.531684-5.729662 21.948006-5.939558 34.254083-0.238565 12.603004 1.429344 24.197482 4.974035 34.777289 3.544691 10.584926 8.772649 19.627882 15.700257 27.131937 6.950134 7.510199 15.451453 13.309485 25.514199 17.399907 10.061721 4.094517 21.537428 6.252868 34.442478 6.479147 17.508439 0.302046 32.602557-2.881213 45.276209-9.560018 12.65727-6.678804 22.341178-16.325852 29.004624-28.928855 6.678804-12.603004 10.170253-27.48313 10.455916-44.634233 0.231398-12.683891-1.344361-24.234342-4.694514-34.663638z m154.145936 18.7156c0-12.835426-1.289072-23.539124-3.846737-32.117235-2.579167-8.572992-7.434431-16.109812-14.578079-22.600221-6.139216-5.519766-13.282864-9.549778-21.42992-12.084918-8.147056-2.536164-17.652807-3.803734-28.557186-3.803734-12.975699 0-24.148335 1.35972-33.526101 4.084278-9.366503 2.724559-17.010831 6.937847-22.917625 12.646008-5.908842 5.703041-10.257283 13.013582-13.019726 21.92548-2.75118 8.918041-4.148783 19.563377-4.148783 31.950342v78.883197c0 6.711568 1.554258 11.751132 4.671988 15.106404 3.112611 3.356296 7.19689 5.03342 12.263075 5.03342 5.297583 0 9.506775-1.678148 12.619387-5.03342 3.097253-3.355272 4.655607-8.394836 4.655606-15.106404v-80.673973c0-9.177084 1.057674-16.838818 3.166877-22.994416 2.115347-6.155599 5.853552-10.931 11.226903-14.324156 5.389732-3.393156 12.905051-5.092806 22.5736-5.092806 13.375014 0 22.811141 3.452541 28.341146 10.353529s8.292447 17.362023 8.292447 31.384133v81.348713c0 6.787336 1.537876 11.842258 4.612603 15.16067 3.064489 3.318412 7.180508 4.980178 12.323484 4.980178 5.151167 0 9.306094-1.661766 12.494473-4.980178 3.188379-3.318412 4.780521-8.373334 4.78052-15.16067v-78.884221z m149.667461-67.800663c-2.956981-2.686675-6.965492-4.030013-12.031676-4.030012-4.763115 0-8.647735 0.987025-11.637481 2.967219-3.005103 1.975075-5.530005 4.607484-7.607468 7.888013a443.450878 443.450878 0 0 0-5.535124 8.950806l-40.420945 60.420496-27.984833-26.069144v-33.902891c0-6.863103-1.629002-11.955909-4.850145-15.273297-3.221143-3.318412-7.358664-4.980178-12.441231-4.980178-2.919097 0-5.71328 0.744365-8.399955 2.239237-2.681556 1.488729-4.759019 3.506807-6.226247 6.042971-1.074056 2.087702-1.721151 4.510215-1.952549 7.272658-0.231398 2.762443-0.338906 6.749452-0.338906 11.972291V447.080551c0 6.711568 1.504088 11.751132 4.547075 15.106404 3.026605 3.356296 7.16003 5.03342 12.371606 5.03342 5.152191 0 9.322476-1.661766 12.511879-4.980178 3.188379-3.318412 4.780521-8.373334 4.78052-15.16067v-57.512662l67.137185 68.027964c3.237525 3.285648 5.977443 5.708161 8.254563 7.277777 2.255619 1.564497 5.260723 2.346745 9.037836 2.346745 4.90953 0 8.880157-1.397603 11.906763-4.191786 3.042987-2.800326 4.564481-6.214984 4.56448-10.239877 0-4.850145-2.579167-9.662406-7.714976-14.437807l-41.586126-38.267714 47.903499-66.684628c3.388037-4.628986 5.92932-8.670261 7.612587-12.144303 1.678148-3.463804 2.541283-6.841602 2.541284-10.121107-0.001024-3.657318-1.485658-6.829315-4.441615-9.510871z m103.835283 34.135313c5.406115 6.997232 8.00064 17.502296 7.752859 31.524406l-1.413985 81.33233c-0.12901 6.787336 1.321836 11.869903 4.332058 15.241557 3.005103 3.371654 7.089382 5.104068 12.241573 5.195194 5.141952 0.086006 9.328619-1.499992 12.570241-4.764138 3.259027-3.259027 4.942294-8.287328 5.049802-15.07364l1.376102-78.871934c0.237541-12.829283-0.874398-23.555506-3.290768-32.17662s-7.143648-16.239845-14.178764-22.854145c-6.05321-5.627274-13.103684-9.776057-21.218999-12.457612-8.09279-2.676436-17.577039-4.1109-28.481418-4.300319-12.980818-0.226279-24.170861 0.938903-33.585487 3.495545-9.419745 2.562785-17.134721 6.641944-23.151071 12.241573-5.993825 5.605772-10.471275 12.835426-13.390372 21.704321-2.919097 8.863775-4.493833 19.487609-4.709872 31.864335l-1.376102 78.877054c-0.107508 6.711568 1.35972 11.772633 4.402707 15.182171 3.064489 3.409538 7.110884 5.15731 12.177068 5.24946 5.297583 0.09215 9.538516-1.510231 12.711536-4.818404 3.165853-3.296911 4.795879-8.308829 4.919769-15.020398l1.413986-80.663733c0.161774-9.171965 1.343338-16.816293 3.566192-22.935032 2.217736-6.112595 6.048091-10.822468 11.475707-14.124498 5.438879-3.296911 12.9972-4.861408 22.664726-4.69349 13.354536 0.233446 22.736398 3.847761 28.142512 10.846017zM398.158286 435.157406c-7.483578 4.381205-16.023805 6.490409-25.62273 6.323516-6.835458-0.12389-13.12109-1.47849-18.887613-4.079159-5.747068-2.600669-10.666837-6.323516-14.767498-11.173661-4.100661-4.845025-7.305422-11.000624-9.597901-18.4627-2.293503-7.461052-3.345033-15.819028-3.188379-25.065736 0.161774-9.322476 1.526613-17.733694 4.067897-25.222391 2.557666-7.488697 6.085974-13.67706 10.579807-18.558946 4.510215-4.882909 9.630665-8.508487 15.398211-10.865471 5.762427-2.363127 12.063417-3.485306 18.883517-3.366535 8.756267 0.156654 16.757931 2.422513 24.030589 6.803718 7.25218 4.375062 12.975699 11.043627 17.151103 19.994433 4.186667 8.945686 6.171981 19.913546 5.940583 32.889244-0.21604 12.009151-2.379509 22.379062-6.533413 31.108708-4.155951 8.733742-9.955237 15.288656-17.454173 19.67498z"  horiz-adv-x="1024" />

    
    <glyph glyph-name="zhuye" unicode="&#58882;" d="M981.4 393.7c-9.1 0-18.3 2.9-26 8.9L539 724.3c-15.3 11.8-36.7 11.8-52 0L70.7 402.6c-18.6-14.4-45.4-10.9-59.7 7.7-14.4 18.6-11 45.4 7.7 59.7L435 791.7c46 35.5 110.2 35.5 156.1 0L1007.5 470c18.6-14.4 22-41.1 7.7-59.7-8.5-10.9-21.1-16.6-33.8-16.6zM810.4-85.3H215.7c-70.8 0-128.4 57.6-128.4 128.4V361.8c0 23.5 19.1 42.6 42.6 42.6s42.6-19.1 42.6-42.6v-318.7c0-23.8 19.4-43.2 43.2-43.2h594.8c23.8 0 43.2 19.4 43.2 43.2V361.8c0 23.5 19.1 42.6 42.6 42.6s42.6-19.1 42.6-42.6v-318.7c-0.1-70.8-57.7-128.4-128.5-128.4z"  horiz-adv-x="1024" />

    
    <glyph glyph-name="xinxi" unicode="&#58883;" d="M277.3 426.7m-64 0a64 64 0 1 1 128 0 64 64 0 1 1-128 0ZM344.7-82.2c-5.2 0-10.4 0.8-15.5 2.5-13.8 4.5-24.8 14.8-30.4 28.1l-39.3 94.2H128.3C57.5 42.7 0 100.2 0 170.9V682.4C0 753.1 57.5 810.7 128.3 810.7h767.5c70.7 0 128.3-57.5 128.3-128.3v-511.5c0-70.7-57.5-128.3-128.3-128.3H566.5L370.2-75.1c-7.7-4.7-16.6-7.1-25.5-7.1z m-18.3 80.3s-0.1 0 0 0zM128.3 725.3c-23.7 0-42.9-19.3-42.9-42.9v-511.5c0-23.7 19.3-42.9 42.9-42.9h188.2l45.3-108.7L542.9 128h352.9c23.7 0 42.9 19.3 42.9 42.9V682.4c0 23.7-19.3 42.9-42.9 42.9H128.3zM512 426.7m-64 0a64 64 0 1 1 128 0 64 64 0 1 1-128 0ZM746.7 426.7m-64 0a64 64 0 1 1 128 0 64 64 0 1 1-128 0Z"  horiz-adv-x="1024" />

    
    <glyph glyph-name="youjian" unicode="&#58884;" d="M509.3 289.8c-27.9 0-55.6 9-78.7 26.9L36.4 650.3c-18 15.2-20.2 42.2-5 60.1 15.2 18 42.2 20.2 60.1 5L484.3 383c14.4-11.1 36.5-11.1 52.4 1.2l396.2 331.4c18.1 15.1 45 12.8 60.1-5.4 15.1-18.1 12.7-45-5.4-60.1L590.1 317.7c-24.1-18.7-52.6-27.9-80.8-27.9zM894.8-42.6H129.4c-71.3 0-129.4 58-129.4 129.4v552c0 71.3 58 129.4 129.4 129.4h765.4c71.3 0 129.4-58 129.4-129.4v-552.1c0-71.3-58.1-129.3-129.4-129.3zM129.4 682.8c-24.3 0-44-19.8-44-44v-552.1c0-24.3 19.8-44 44-44h765.4c24.3 0 44 19.8 44 44V638.8c0 24.3-19.8 44-44 44H129.4z"  horiz-adv-x="1025" />

    
    <glyph glyph-name="sousuo" unicode="&#58885;" d="M492.5-21.7c-247 0-447.9 200.9-447.9 447.9s200.9 448 447.9 448 447.9-200.9 447.9-447.9-200.9-448-447.9-448z m0 810.6c-200 0-362.6-162.7-362.6-362.6s162.7-362.6 362.6-362.6 362.6 162.7 362.6 362.6-162.6 362.6-362.6 362.6zM951.1-75c-10.9 0-21.8 4.2-30.2 12.5l-96 96c-16.7 16.7-16.7 43.7 0 60.3 16.6 16.7 43.7 16.7 60.3 0l96-96c16.7-16.7 16.7-43.7 0-60.3-8.2-8.4-19.2-12.5-30.1-12.5z"  horiz-adv-x="1024" />

    
    <glyph glyph-name="yonghu" unicode="&#58886;" d="M512 234.7c-117.6 0-213.3 95.7-213.3 213.3S394.4 661.3 512 661.3 725.3 565.6 725.3 448 629.6 234.7 512 234.7z m0 341.3c-70.6 0-128-57.4-128-128s57.4-128 128-128 128 57.4 128 128-57.4 128-128 128zM837 33.1c-15.7 0-30.8 8.7-38.2 23.7C744.3 166.5 634.4 234.7 512 234.7s-232.3-68.1-286.8-177.9c-10.5-21.1-36.1-29.7-57.2-19.2s-29.7 36.1-19.2 57.2C217.8 233.7 357 320 512 320s294.2-86.3 363.2-225.2c10.5-21.1 1.9-46.7-19.2-57.2-6.1-3-12.6-4.5-19-4.5zM512-106.7c-270.6 0-490.7 220.1-490.7 490.7S241.4 874.7 512 874.7s490.7-220.1 490.7-490.7-220.1-490.7-490.7-490.7z m0 896c-223.5 0-405.3-181.8-405.3-405.3S288.5-21.3 512-21.3 917.3 160.5 917.3 384 735.5 789.3 512 789.3z"  horiz-adv-x="1024" />

    
    <glyph glyph-name="qunzu" unicode="&#58908;" d="M388.9 298.6c-135.2 0-245.3 110-245.3 245.3s110 245.3 245.3 245.3 245.3-110 245.3-245.3-110.1-245.3-245.3-245.3z m0 405.3c-88.2 0-160-71.8-160-160s71.8-160 160-160 160 71.8 160 160-71.8 160-160 160zM591.3-85.3H186.5c-76.6 0-138.8 62.3-138.8 138.8V147c0 130.6 106.2 236.9 236.9 236.9h208.8c130.6 0 236.9-106.3 236.9-236.9v-93.5c-0.2-76.5-62.4-138.8-139-138.8zM284.5 298.6c-83.6 0-151.5-68-151.5-151.5v-93.5c0-29.5 24-53.5 53.5-53.5h404.8c29.5 0 53.5 24 53.5 53.5v93.5c0 83.6-68 151.5-151.6 151.5H284.5zM847.2-42.6c-23.6 0-42.7 19.1-42.7 42.7s19.1 42.7 42.7 42.7c29.5 0 53.5 24 53.5 53.5v93.5c0 83.6-68 151.5-151.6 151.5h-14.3c-19.8 0-37 13.6-41.5 32.9-4.5 19.3 4.8 39.1 22.5 48 54.8 27.3 88.9 82.1 88.9 143.1 0 88.2-71.8 160-160 160-23.6 0-42.7 19.1-42.7 42.7s19.1 42.7 42.7 42.7c135.2 0 245.3-110 245.3-245.3 0-57.8-19.9-111.9-54.9-154.8 88.3-34.6 151-120.6 151-220.9v-93.5c0-76.6-62.3-138.8-138.9-138.8z"  horiz-adv-x="1024" />

    
    <glyph glyph-name="bianji1" unicode="&#58909;" d="M823.3-42.8H229.4c-71.6 0-129.8 58.2-129.8 129.8V680.9c0 71.6 58.2 129.8 129.8 129.8h297c23.6 0 42.7-19.1 42.7-42.7s-19.1-42.7-42.7-42.7h-297c-24.5 0-44.4-19.9-44.4-44.4V87c0-24.5 19.9-44.4 44.4-44.4h593.9c24.5 0 44.4 19.9 44.4 44.4V384c0 23.6 19.1 42.7 42.7 42.7s42.7-19.1 42.7-42.7v-297c0-71.6-58.2-129.8-129.8-129.8zM483 139.5c-1.8 0-3.5 0.1-5.3 0.3l-134.5 16.8c-19.4 2.4-34.6 17.7-37 37l-16.8 134.5c-1.6 13.1 2.9 26.2 12.2 35.5l374.6 374.6c51.1 51.1 134.2 51.1 185.3 0l26.3-26.3c24.8-24.7 38.4-57.6 38.4-92.7 0-35-13.6-67.9-38.4-92.7L513.2 152c-8.1-8.1-19-12.5-30.2-12.5z m-96.3 97.7l80.8-10.1 359.8 359.8c8.6 8.6 13.4 20.1 13.4 32.3 0 12.2-4.8 23.7-13.4 32.3L801 677.8c-17.9 17.8-46.8 17.8-64.6 0L376.6 318l10.1-80.8z"  horiz-adv-x="1024" />

    
    <glyph glyph-name="yinliangguan" unicode="&#58910;" d="M596.3-84.9c-22.7 0-45.2 6.2-65.2 17.9l-2.4 1.5-110.2 74.9c-18.1 12.3-37.2 23.3-56.8 32.7-19.6 9.4-40 17.4-60.8 23.8-20.7 6.4-42.1 11.2-63.6 14.5s-43.5 4.9-65.4 4.9c-17.5 0-34.4 3.4-50.4 10.2-15.4 6.5-29.2 15.8-41 27.6s-21.2 25.7-27.7 41.1c-6.7 15.9-10.2 32.8-10.2 50.3V553.4c0 17.5 3.4 34.4 10.2 50.4 6.5 15.4 15.8 29.2 27.6 41 11.9 11.9 25.7 21.2 41.1 27.7 15.9 6.7 32.8 10.2 50.3 10.2 21.8 0 43.8 1.6 65.4 4.9 21.5 3.2 42.9 8.1 63.6 14.5 20.7 6.4 41.2 14.4 60.7 23.8 19.6 9.4 38.7 20.4 56.8 32.7L531.1 835c20.4 12 43.2 18.2 66.6 17.9 21.8-0.2 43.5-6.2 62.6-17.1 19.2-11 35.3-26.7 46.6-45.4 12-19.8 18.4-42.9 18.4-66.6v-170c0-23.6-19.1-42.7-42.7-42.7S640 530.4 640 553.9v170c0 8.2-2 15.8-6.1 22.4-3.8 6.3-9.3 11.7-15.9 15.4-6.5 3.7-13.9 5.8-21.2 5.9-7.5 0-14.6-1.8-21.4-5.6l-108.9-74c-21.6-14.7-44.4-27.9-67.9-39.1-23.4-11.2-47.8-20.7-72.5-28.4-24.7-7.6-50.3-13.4-76-17.3-25.8-3.9-52.1-5.9-78.1-5.9-6 0-11.7-1.1-17-3.4-5.3-2.2-10-5.4-14-9.4s-7.2-8.7-9.4-14c-2.3-5.4-3.5-11.1-3.5-17.1v-338.8c0-6 1.1-11.7 3.4-17 2.2-5.3 5.4-10 9.4-14s8.7-7.2 14-9.4c5.4-2.3 11.1-3.5 17.1-3.5 26.1 0 52.3-2 78.1-5.9 25.7-3.9 51.3-9.7 76-17.3 24.8-7.6 49.2-17.2 72.6-28.4 23.4-11.2 46.3-24.4 67.9-39.1l108.9-74c6.8-3.8 14-5.4 21.4-5.6 7.3 0.1 14.7 2.1 21.3 5.9 6.5 3.7 12 9.1 15.8 15.4 4 6.7 6.1 14.2 6.1 22.4V192.7c0 23.6 19.1 42.7 42.7 42.7s42.7-19.1 42.7-42.7v-148.6c0-23.7-6.4-46.7-18.4-66.6-11.2-18.6-27.3-34.3-46.5-45.3-19.3-11-40.9-16.9-62.7-17.1h-1.6zM469.3 106.7c-10.9 0-21.8 4.2-30.2 12.5-16.7 16.7-16.7 43.7 0 60.3l416 416c16.7 16.7 43.7 16.7 60.3 0s16.7-43.7 0-60.3l-416-416c-8.2-8.4-19.2-12.5-30.1-12.5z"  horiz-adv-x="1024" />

    
    <glyph glyph-name="yinliangkai" unicode="&#58911;" d="M596.4-85c-22.5 0-44.9 6-65.3 18l-2.4 1.5-110.3 75c-73 49.6-158.3 75.9-246.6 75.9-71.3 0-129.2 58-129.2 129.2V553.4c0 71.3 58 129.3 129.2 129.3 88.3 0 173.5 26.2 246.6 75.9L531.1 835c40.3 23.7 88.7 24 129.3 0.8 40.6-23.3 64.9-65.1 64.9-111.9v-679.8c0-46.8-24.3-88.6-64.9-111.9-20.1-11.5-42-17.2-64-17.2z m-21 91c19.2-10.8 36.2-3.4 42.7 0.3 6.6 3.8 21.9 15 21.9 37.8V723.9c0 22.8-15.4 34-21.9 37.8-6.5 3.7-23.5 11-42.7 0.3l-109-74c-87.2-59.3-189.1-90.6-294.5-90.6-24.2 0-43.9-19.7-43.9-43.9v-338.8c0-24.2 19.7-43.9 43.9-43.9 105.5 0 207.3-31.4 294.5-90.6l109-74.2zM901.1 78.9c-8.2 0-16.5 2.4-23.8 7.3-19.5 13.2-24.7 39.7-11.5 59.2 15.5 22.9 28.7 47.3 39.4 72.5 10.9 25.7 19.2 52.6 24.8 80 5.8 28.1 8.7 57.1 8.7 86 0 29-2.9 57.9-8.7 86-5.6 27.4-14 54.3-24.8 80-10.7 25.2-23.9 49.6-39.4 72.5-13.2 19.5-8 46 11.5 59.2 19.5 13.2 46 8 59.2-11.5 18.5-27.4 34.4-56.7 47.2-87 13.1-30.9 23.1-63.3 29.8-96.2 6.9-33.7 10.4-68.4 10.4-103.1s-3.5-69.4-10.4-103.1c-6.7-32.9-16.8-65.2-29.8-96.2-12.8-30.2-28.7-59.5-47.2-87-8.2-12-21.6-18.6-35.4-18.6z"  horiz-adv-x="1024" />

    
    <glyph glyph-name="kuaitui" unicode="&#58912;" d="M512-128C229.7-128 0 101.7 0 384S229.7 896 512 896s512-229.7 512-512-229.7-512-512-512z m0 938.7C276.7 810.7 85.3 619.3 85.3 384S276.7-42.7 512-42.7 938.7 148.7 938.7 384 747.3 810.7 512 810.7zM731.9 210.5c-8 0-16 2.2-22.9 6.7L503.8 348c-12.3 7.8-19.7 21.4-19.7 36 0 14.6 7.4 28.1 19.7 36L709 550.8c13.1 8.4 29.8 8.9 43.5 1.4 13.6-7.5 22.1-21.8 22.1-37.4v-261.6c0-15.6-8.5-29.9-22.1-37.4-6.4-3.5-13.5-5.3-20.6-5.3zM606.1 384l83.2-53V437l-83.2-53zM518.6 210.5c-8 0-16 2.2-22.9 6.7L290.5 348c-12.3 7.8-19.7 21.4-19.7 36 0 14.6 7.4 28.1 19.7 36l205.2 130.8c13.1 8.4 29.8 8.9 43.5 1.4 13.6-7.5 22.1-21.8 22.1-37.4v-261.6c0-15.6-8.5-29.9-22.1-37.4-6.5-3.5-13.6-5.3-20.6-5.3zM392.8 384l83.2-53V437l-83.2-53zM292.1 224c-23.6 0-42.7 19.1-42.7 42.7V501.3c0 23.6 19.1 42.7 42.7 42.7s42.7-19.1 42.7-42.7v-234.7c-0.1-23.5-19.2-42.6-42.7-42.6z"  horiz-adv-x="1024" />

    
    <glyph glyph-name="kuaijin" unicode="&#58913;" d="M512-128C229.7-128 0 101.7 0 384S229.7 896 512 896s512-229.7 512-512-229.7-512-512-512z m0 938.7C276.7 810.7 85.3 619.3 85.3 384S276.7-42.7 512-42.7 938.7 148.7 938.7 384 747.3 810.7 512 810.7zM292.1 210.5c-7 0-14.1 1.8-20.5 5.2-13.6 7.5-22.1 21.8-22.1 37.4V514.8c0 15.6 8.5 29.9 22.1 37.4 13.6 7.5 30.3 7 43.5-1.4L520.2 420c12.3-7.8 19.7-21.4 19.7-36 0-14.6-7.4-28.1-19.7-36L315 217.2c-7-4.4-15-6.7-22.9-6.7zM334.7 437v-106l83.2 53-83.2 53zM505.4 210.5c-7 0-14.1 1.8-20.5 5.2-13.6 7.5-22.1 21.8-22.1 37.4V514.8c0 15.6 8.5 29.9 22.1 37.4 13.6 7.5 30.3 7 43.5-1.4L733.5 420c12.3-7.8 19.7-21.4 19.7-36 0-14.6-7.4-28.1-19.7-36L528.3 217.2c-6.9-4.4-14.9-6.7-22.9-6.7zM548.1 437v-106l83.2 53-83.2 53zM731.9 224c-23.6 0-42.7 19.1-42.7 42.7V501.3c0 23.6 19.1 42.7 42.7 42.7s42.7-19.1 42.7-42.7v-234.7c0-23.5-19.1-42.6-42.7-42.6z"  horiz-adv-x="1024" />

    
    <glyph glyph-name="tingzhi" unicode="&#58914;" d="M512-128C229.7-128 0 101.7 0 384S229.7 896 512 896s512-229.7 512-512-229.7-512-512-512z m0 938.7C276.7 810.7 85.3 619.3 85.3 384S276.7-42.7 512-42.7 938.7 148.7 938.7 384 747.3 810.7 512 810.7zM640 213.3H384c-23.6 0-42.7 19.1-42.7 42.7V512c0 23.6 19.1 42.7 42.7 42.7h256c23.6 0 42.7-19.1 42.7-42.7v-256c0-23.6-19.1-42.7-42.7-42.7z m-213.3 85.4h170.7V469.3H426.7v-170.6z"  horiz-adv-x="1024" />

    
    <glyph glyph-name="zanting" unicode="&#58915;" d="M511.501463-127.000976C229.476878-127.000976 0.000976 102.474927 0.000976 384.499512S229.476878 896 511.501463 896s511.500488-229.475902 511.500488-511.500488-229.475902-511.500488-511.500488-511.500488z m0 937.784196C276.431024 810.78322 85.217756 619.569951 85.217756 384.499512S276.431024-41.784195 511.501463-41.784195 937.785171 149.429073 937.785171 384.499512 746.571902 810.78322 511.501463 810.78322zM394.315902 213.966049c-23.576976 0-42.658341 19.081366-42.658341 42.658341V512.374634c0 23.576976 19.081366 42.658341 42.658341 42.658342s42.658341-19.081366 42.658342-42.658342v-255.750244c-0.099902-23.576976-19.181268-42.658341-42.658342-42.658341zM628.687024 213.966049c-23.576976 0-42.658341 19.081366-42.658341 42.658341V512.374634c0 23.576976 19.081366 42.658341 42.658341 42.658342S671.345366 535.95161 671.345366 512.374634v-255.750244c0-23.576976-19.081366-42.658341-42.658342-42.658341z"  horiz-adv-x="1024" />

    
    <glyph glyph-name="naozhong" unicode="&#58916;" d="M512 0c-223.5 0-405.3 181.8-405.3 405.3S288.5 810.7 512 810.7s405.3-181.8 405.3-405.3S735.5 0 512 0z m0 725.3c-176.4 0-320-143.5-320-320s143.6-320 320-320 320 143.5 320 320-143.6 320-320 320zM922.6 646.4c-13.7 0-27.1 6.6-35.4 18.8-15.3 22.6-32.8 43.9-52.1 63.2-19.3 19.3-40.6 36.9-63.2 52.1-19.5 13.2-24.6 39.7-11.5 59.2 13.2 19.5 39.7 24.6 59.2 11.5 27.1-18.3 52.6-39.4 75.7-62.5s44.2-48.6 62.5-75.7c13.2-19.5 8.1-46.1-11.5-59.2-7.2-5-15.5-7.4-23.7-7.4zM101.4 646.4c-8.2 0-16.5 2.4-23.8 7.3-19.5 13.2-24.7 39.7-11.5 59.2 18.3 27.1 39.4 52.6 62.5 75.7s48.6 44.1 75.7 62.5c19.5 13.2 46.1 8 59.3-11.5 13.2-19.5 8.1-46-11.5-59.2-22.6-15.3-43.9-32.8-63.2-52.1-19.3-19.3-36.8-40.5-52.1-63.2-8.2-12.1-21.7-18.7-35.4-18.7zM138.6-74.7c-8.6 0-17.3 2.6-24.8 7.9-19.2 13.7-23.6 40.4-9.9 59.5l53.3 74.7c13.7 19.2 40.3 23.6 59.5 9.9 19.2-13.7 23.6-40.4 9.9-59.5l-53.3-74.7c-8.2-11.6-21.4-17.8-34.7-17.8zM885.4-74.7c-13.3 0-26.4 6.2-34.8 17.9l-53.3 74.7c-13.7 19.2-9.3 45.8 9.9 59.5 19.2 13.7 45.8 9.2 59.5-9.9l53.3-74.7c13.7-19.2 9.3-45.8-9.9-59.5-7.5-5.4-16.2-8-24.7-8zM512 341.3c-7.2 0-14.5 1.8-21 5.5-13.4 7.6-21.6 21.8-21.6 37.1V512c0 23.6 19.1 42.7 42.7 42.7s42.7-19.1 42.7-42.7v-52.6l42.1 25.2c20.2 12.1 46.4 5.6 58.5-14.6 12.1-20.2 5.6-46.4-14.6-58.5l-106.7-64c-6.9-4.1-14.5-6.2-22.1-6.2z"  horiz-adv-x="1024" />

    
    <glyph glyph-name="xihuan" unicode="&#58917;" d="M512.8-81.4c-26.1 0-50.1 7.3-71.5 21.7C323.5-1 0 220.7 0 495.5 0 684 153.4 837.4 341.9 837.4c60.5 0 119-15.8 170.9-45.9 51.9 30.1 110.5 45.9 170.9 45.9 188.5 0 341.9-153.4 341.9-341.9 0-274.8-323.5-496.6-441.3-555.2-21.4-14.4-45.4-21.7-71.5-21.7zM341.9 751.9c-141.4 0-256.4-115-256.4-256.4 0-117.2 80.6-225.2 148.2-295.1 86.1-89 187.5-155.2 248.1-184.8l6.1-3.7c15.1-10.8 34.6-10.8 49.7 0l6.1 3.7C604.4 45.3 705.8 111.4 791.8 200.4c67.6 69.9 148.2 177.8 148.2 295.1 0 141.4-115 256.4-256.4 256.4-52.6 0-103.2-16-146.5-46.1L512.8 688.7l-24.5 17.1c-43.2 30.2-93.9 46.1-146.4 46.1z"  horiz-adv-x="1025" />

    
    <glyph glyph-name="zihao" unicode="&#58918;" d="M809.3-128H214.7c-71.3 0-129.4 58-129.4 129.4V766.6C85.3 838 143.4 896 214.7 896h594.6c71.3 0 129.4-58 129.4-129.4v-765.3c0-71.3-58.1-129.3-129.4-129.3zM214.7 810.7c-24.3 0-44-19.8-44-44v-765.3c0-24.3 19.8-44 44-44h594.6c24.3 0 44 19.8 44 44V766.6c0 24.3-19.8 44-44 44H214.7zM725.3 512c-23.6 0-42.7 19.1-42.7 42.7V576H341.3v-21.3c0-23.6-19.1-42.7-42.7-42.7S256 531.1 256 554.7v64c0 23.6 19.1 42.7 42.7 42.7h426.7c23.6 0 42.7-19.1 42.7-42.7v-64c-0.1-23.6-19.2-42.7-42.8-42.7zM512 106.7c-23.6 0-42.7 19.1-42.7 42.7V618.7c0 23.6 19.1 42.7 42.7 42.7s42.7-19.1 42.7-42.7v-469.3c0-23.6-19.1-42.7-42.7-42.7zM618.7 106.7H405.3c-23.6 0-42.7 19.1-42.7 42.7s19.1 42.7 42.7 42.7h213.3c23.6 0 42.7-19.1 42.7-42.7s-19.1-42.7-42.6-42.7z"  horiz-adv-x="1024" />

    
    <glyph glyph-name="jishiben" unicode="&#58919;" d="M892.1-42.7H131.9c-17.8 0-35.1 3.5-51.4 10.4-15.6 6.6-29.7 16.1-41.9 28.2C26.5 8 17 22.1 10.3 37.8 3.5 54.2 0 71.5 0 89.2V678.8c0 17.8 3.5 35 10.4 51.3 6.6 15.7 16.1 29.8 28.2 41.9 12.2 12.2 26.3 21.7 42 28.3 16.2 6.9 33.5 10.4 51.3 10.4h83.4c23.6 0 42.7-19.1 42.7-42.7s-19.1-42.7-42.7-42.7h-83.4c-6.3 0-12.4-1.2-18.1-3.6-5.6-2.4-10.6-5.7-14.9-10-4.3-4.3-7.6-9.2-10-14.8-2.4-5.7-3.6-11.8-3.6-18.1v-589.6c0-6.3 1.2-12.4 3.7-18.1 2.3-5.5 5.7-10.5 10-14.8 4.3-4.2 9.2-7.6 14.8-9.9 5.8-2.4 11.9-3.7 18.1-3.7h760.2c6.3 0 12.4 1.2 18.1 3.6 5.6 2.4 10.6 5.7 14.9 10 4.3 4.3 7.6 9.2 10 14.8 2.4 5.7 3.6 11.8 3.6 18.1V678.8c0 6.3-1.2 12.4-3.7 18.1-2.3 5.5-5.7 10.5-10 14.8-4.3 4.2-9.2 7.6-14.8 9.9-5.8 2.4-11.9 3.7-18.1 3.7h-83.4c-23.6 0-42.7 19.1-42.7 42.7s19.1 42.7 42.7 42.7h83.4c17.8 0 35.1-3.5 51.4-10.4 15.6-6.6 29.7-16.1 41.9-28.2 12.1-12.1 21.6-26.2 28.3-41.9 6.9-16.3 10.4-33.6 10.4-51.4v-589.6c0-17.8-3.5-35-10.4-51.3-6.6-15.7-16.1-29.8-28.2-41.9-12.2-12.2-26.3-21.7-42-28.3-16.3-6.9-33.6-10.4-51.4-10.4zM229.8 181.2c-6.1 0-12.3 1.3-18.1 4.1-21.3 10-30.5 35.5-20.4 56.8L467.5 828.9c10 21.3 35.5 30.5 56.8 20.4 21.3-10 30.5-35.5 20.4-56.8L268.5 205.7c-7.3-15.4-22.7-24.5-38.7-24.5zM810.7 448H640c-23.6 0-42.7 19.1-42.7 42.7s19.1 42.7 42.7 42.7h170.7c23.6 0 42.7-19.1 42.7-42.7S834.2 448 810.7 448zM810.7 192h-384c-23.6 0-42.7 19.1-42.7 42.7s19.1 42.7 42.7 42.7h384c23.6 0 42.7-19.1 42.7-42.7S834.2 192 810.7 192z"  horiz-adv-x="1024" />

    
    </font>
</defs>
</svg>
